<svg width="25" height="20" viewBox="0 0 25 20" fill="none" xmlns="http://www.w3.org/2000/svg">
<g id="Vector" filter="url(#filter0_ii_1_7698)">
<path d="M25 9.99881C25 10.3776 24.842 10.7409 24.5607 11.0087C24.2794 11.2766 23.8979 11.427 23.5001 11.427H5.12594L11.5656 17.5576C11.8474 17.826 12.0057 18.1899 12.0057 18.5693C12.0057 18.9487 11.8474 19.3127 11.5656 19.581C11.2839 19.8493 10.9017 20 10.5032 20C10.1047 20 9.72251 19.8493 9.44073 19.581L0.441162 11.0117C0.301329 10.879 0.190378 10.7213 0.114674 10.5477C0.0389694 10.3741 0 10.188 0 10C0 9.81203 0.0389694 9.6259 0.114674 9.4523C0.190378 9.2787 0.301329 9.12103 0.441162 8.98835L9.44073 0.419041C9.58026 0.286188 9.7459 0.180804 9.92819 0.108905C10.1105 0.0370057 10.3059 0 10.5032 0C10.7005 0 10.8959 0.0370057 11.0782 0.108905C11.2605 0.180804 11.4261 0.286188 11.5656 0.419041C11.7052 0.551893 11.8158 0.709611 11.8913 0.883191C11.9669 1.05677 12.0057 1.24281 12.0057 1.43069C12.0057 1.61858 11.9669 1.80462 11.8913 1.9782C11.8158 2.15178 11.7052 2.3095 11.5656 2.44235L5.12594 8.57059H23.5001C23.8979 8.57059 24.2794 8.72106 24.5607 8.98891C24.842 9.25675 25 9.62002 25 9.99881Z" fill="#D9D9D9"/>
<path d="M25 9.99881C25 10.3776 24.842 10.7409 24.5607 11.0087C24.2794 11.2766 23.8979 11.427 23.5001 11.427H5.12594L11.5656 17.5576C11.8474 17.826 12.0057 18.1899 12.0057 18.5693C12.0057 18.9487 11.8474 19.3127 11.5656 19.581C11.2839 19.8493 10.9017 20 10.5032 20C10.1047 20 9.72251 19.8493 9.44073 19.581L0.441162 11.0117C0.301329 10.879 0.190378 10.7213 0.114674 10.5477C0.0389694 10.3741 0 10.188 0 10C0 9.81203 0.0389694 9.6259 0.114674 9.4523C0.190378 9.2787 0.301329 9.12103 0.441162 8.98835L9.44073 0.419041C9.58026 0.286188 9.7459 0.180804 9.92819 0.108905C10.1105 0.0370057 10.3059 0 10.5032 0C10.7005 0 10.8959 0.0370057 11.0782 0.108905C11.2605 0.180804 11.4261 0.286188 11.5656 0.419041C11.7052 0.551893 11.8158 0.709611 11.8913 0.883191C11.9669 1.05677 12.0057 1.24281 12.0057 1.43069C12.0057 1.61858 11.9669 1.80462 11.8913 1.9782C11.8158 2.15178 11.7052 2.3095 11.5656 2.44235L5.12594 8.57059H23.5001C23.8979 8.57059 24.2794 8.72106 24.5607 8.98891C24.842 9.25675 25 9.62002 25 9.99881Z" fill="url(#paint0_linear_1_7698)" fill-opacity="0.8"/>
</g>
<defs>
<filter id="filter0_ii_1_7698" x="-0.404427" y="-0.404427" width="25.8089" height="20.8089" filterUnits="userSpaceOnUse" color-interpolation-filters="sRGB">
<feFlood flood-opacity="0" result="BackgroundImageFix"/>
<feBlend mode="normal" in="SourceGraphic" in2="BackgroundImageFix" result="shape"/>
<feColorMatrix in="SourceAlpha" type="matrix" values="0 0 0 0 0 0 0 0 0 0 0 0 0 0 0 0 0 0 127 0" result="hardAlpha"/>
<feOffset dx="-0.404427" dy="-0.404427"/>
<feGaussianBlur stdDeviation="0.202213"/>
<feComposite in2="hardAlpha" operator="arithmetic" k2="-1" k3="1"/>
<feColorMatrix type="matrix" values="0 0 0 0 1 0 0 0 0 1 0 0 0 0 1 0 0 0 0.4 0"/>
<feBlend mode="normal" in2="shape" result="effect1_innerShadow_1_7698"/>
<feColorMatrix in="SourceAlpha" type="matrix" values="0 0 0 0 0 0 0 0 0 0 0 0 0 0 0 0 0 0 127 0" result="hardAlpha"/>
<feOffset dx="0.404427" dy="0.404427"/>
<feGaussianBlur stdDeviation="0.202213"/>
<feComposite in2="hardAlpha" operator="arithmetic" k2="-1" k3="1"/>
<feColorMatrix type="matrix" values="0 0 0 0 0.127604 0 0 0 0 0.267969 0 0 0 0 0.408333 0 0 0 0.4 0"/>
<feBlend mode="normal" in2="effect1_innerShadow_1_7698" result="effect2_innerShadow_1_7698"/>
</filter>
<linearGradient id="paint0_linear_1_7698" x1="-1.92085e-07" y1="4.16667" x2="70.238" y2="128.783" gradientUnits="userSpaceOnUse">
<stop stop-color="#48647D"/>
<stop offset="0.234375" stop-color="#6B8299"/>
<stop offset="0.442708" stop-color="#DAE2EB"/>
<stop offset="0.682292" stop-color="#8CA2B7"/>
<stop offset="1" stop-color="#EDF2F7"/>
</linearGradient>
</defs>
</svg>
