<svg width="21" height="22" viewBox="0 0 21 22" fill="none" xmlns="http://www.w3.org/2000/svg">
<g id="Frame" clip-path="url(#clip0_1_6969)">
<g id="Vector" filter="url(#filter0_ii_1_6969)">
<path d="M10.9102 0C11.2484 0.0533799 11.5918 0.0872446 11.9248 0.16301C15.3122 0.93214 17.5365 2.9778 18.5195 6.29654C19.3512 9.10616 20.0996 11.9399 20.8853 14.7633C21.4018 16.6195 20.1151 18.3231 18.1853 18.334C17.2167 18.3392 16.248 18.3369 15.28 18.3329C15.135 18.3323 15.0602 18.3558 15.0165 18.5234C14.4448 20.7108 12.5351 22.1027 10.2734 21.9937C8.35168 21.9013 6.6255 20.4939 6.13658 18.6026C6.08136 18.3891 6.00428 18.3254 5.78341 18.3288C4.79349 18.3426 3.80357 18.3386 2.81365 18.334C1.40613 18.3271 0.300595 17.4168 0.0394539 16.0524C-0.0543038 15.5634 0.0371531 15.0864 0.144716 14.6083C0.751552 11.9095 1.33481 9.20488 1.9589 6.51006C2.71701 3.23437 5.47798 0.680738 8.81586 0.123979C9.08276 0.079209 9.35138 0.0413264 9.61884 0C10.0491 0 10.4799 0 10.9102 0ZM10.4989 16.4984C13.0465 16.4984 15.5935 16.4864 18.141 16.5065C18.8508 16.5122 19.3064 15.9084 19.1114 15.2259C18.3096 12.4215 17.544 9.60724 16.7605 6.79762C15.9921 4.04138 13.6274 2.0755 10.8227 1.85452C7.48025 1.59107 4.46965 3.77448 3.72074 7.03525C3.10125 9.7318 2.51224 12.4358 1.91288 15.1369C1.87434 15.3103 1.8289 15.4917 1.84271 15.6644C1.8824 16.1672 2.27871 16.4973 2.81422 16.4978C5.37559 16.499 7.93753 16.4984 10.4989 16.4984ZM13.1241 18.3455C11.41 18.3455 9.71203 18.3455 8.01173 18.3455C8.2004 19.1163 9.15638 20.1283 10.4851 20.1587C11.6706 20.1857 12.8538 19.3855 13.1241 18.3455Z" fill="url(#paint0_linear_1_6969)" fill-opacity="0.8"/>
</g>
</g>
<defs>
<filter id="filter0_ii_1_6969" x="-0.484824" y="-0.485312" width="21.9701" height="22.9703" filterUnits="userSpaceOnUse" color-interpolation-filters="sRGB">
<feFlood flood-opacity="0" result="BackgroundImageFix"/>
<feBlend mode="normal" in="SourceGraphic" in2="BackgroundImageFix" result="shape"/>
<feColorMatrix in="SourceAlpha" type="matrix" values="0 0 0 0 0 0 0 0 0 0 0 0 0 0 0 0 0 0 127 0" result="hardAlpha"/>
<feOffset dx="-0.485312" dy="-0.485312"/>
<feGaussianBlur stdDeviation="0.242656"/>
<feComposite in2="hardAlpha" operator="arithmetic" k2="-1" k3="1"/>
<feColorMatrix type="matrix" values="0 0 0 0 1 0 0 0 0 1 0 0 0 0 1 0 0 0 0.4 0"/>
<feBlend mode="normal" in2="shape" result="effect1_innerShadow_1_6969"/>
<feColorMatrix in="SourceAlpha" type="matrix" values="0 0 0 0 0 0 0 0 0 0 0 0 0 0 0 0 0 0 127 0" result="hardAlpha"/>
<feOffset dx="0.485312" dy="0.485312"/>
<feGaussianBlur stdDeviation="0.242656"/>
<feComposite in2="hardAlpha" operator="arithmetic" k2="-1" k3="1"/>
<feColorMatrix type="matrix" values="0 0 0 0 0.127604 0 0 0 0 0.267969 0 0 0 0 0.408333 0 0 0 0.4 0"/>
<feBlend mode="normal" in2="effect1_innerShadow_1_6969" result="effect2_innerShadow_1_6969"/>
</filter>
<linearGradient id="paint0_linear_1_6969" x1="0.00048812" y1="4.58326" x2="86.3018" y2="121.506" gradientUnits="userSpaceOnUse">
<stop stop-color="#48647D"/>
<stop offset="0.234375" stop-color="#6B8299"/>
<stop offset="0.442708" stop-color="#DAE2EB"/>
<stop offset="0.682292" stop-color="#8CA2B7"/>
<stop offset="1" stop-color="#EDF2F7"/>
</linearGradient>
<clipPath id="clip0_1_6969">
<rect width="21" height="22" fill="white"/>
</clipPath>
</defs>
</svg>
