<svg width="25" height="25" viewBox="0 0 25 25" fill="none" xmlns="http://www.w3.org/2000/svg">
<path id="Vector" d="M10.6617 24.9764C4.83444 24.1463 -0.0588106 19.1654 0.000534195 12.4071C0.0619021 5.40005 5.7934 -0.0746965 12.5965 0.000770875C19.4656 0.0775858 24.9463 5.55301 24.9995 12.4461C25.0258 15.791 23.9098 18.7423 21.6007 21.2017C19.7732 23.1477 17.5605 24.4239 14.9271 25C14.9271 21.9941 14.9271 19.0199 14.9271 16.0106C15.7411 16.0106 16.551 16.0106 17.3717 16.0106C17.5578 14.8213 17.7392 13.6637 17.9247 12.4758C16.671 12.4758 15.4545 12.4758 14.2096 12.4758C14.2096 11.773 14.2062 11.0945 14.2116 10.4166C14.2136 10.174 14.2123 9.92675 14.2561 9.68956C14.4072 8.86279 14.9406 8.34732 15.7775 8.28735C16.5314 8.23277 17.2901 8.25029 18.0468 8.23614C18.1715 8.23412 18.2963 8.23614 18.4359 8.23614C18.4359 7.20319 18.4359 6.18977 18.4359 5.13929C17.9766 5.08471 17.5133 5.01665 17.048 4.9769C16.0324 4.88998 15.0168 4.82664 14.0127 5.08538C12.2148 5.54897 11.0198 6.83393 10.7871 8.67008C10.6799 9.51639 10.7042 10.3796 10.6786 11.2353C10.6664 11.6369 10.6765 12.0392 10.6765 12.4637C9.73646 12.4637 8.81526 12.4637 7.87114 12.4637C7.87114 13.6476 7.87114 14.8099 7.87114 16.0032C8.79436 16.0032 9.7223 16.0032 10.663 16.0032C10.6617 19.0138 10.6617 21.9941 10.6617 24.9764Z" fill="#518EF7"/>
</svg>
