<svg width="22" height="18" viewBox="0 0 22 18" fill="none" xmlns="http://www.w3.org/2000/svg">
<g id="Frame" clip-path="url(#clip0_1_5415)">
<g id="Group">
<g id="Vector" filter="url(#filter0_i_1_5415)">
<path d="M14.8621 14.6248C12.8782 14.6248 10.8943 14.6283 8.90963 14.6198C8.70965 14.6191 8.63063 14.6845 8.57221 14.8741C7.9826 16.7977 6.09761 18.1328 4.18926 17.9895C2.04657 17.8287 0.378737 16.3061 0.0550661 14.2153C-0.307088 11.8774 1.14015 9.65808 3.37699 9.11941C5.62276 8.57864 7.88639 9.89054 8.57909 12.1477C8.63956 12.3451 8.73302 12.376 8.90688 12.376C12.8748 12.3725 16.8433 12.3725 20.8112 12.3739C21.5204 12.3739 22.0049 12.8641 21.9822 13.5488C21.9616 14.1725 21.4819 14.6205 20.814 14.6248C19.9034 14.6304 18.9929 14.6262 18.0824 14.6262C17.009 14.6248 15.9356 14.6248 14.8621 14.6248ZM4.3961 11.2544C3.1832 11.2537 2.19982 12.2503 2.19294 13.4884C2.18607 14.7161 3.17633 15.7372 4.37961 15.7442C5.59802 15.7505 6.59995 14.7322 6.59583 13.4926C6.59171 12.2545 5.6097 11.2558 4.3961 11.2544Z" fill="url(#paint0_linear_1_5415)" fill-opacity="0.8"/>
</g>
<g id="Vector_2" filter="url(#filter1_i_1_5415)">
<path d="M14.8621 14.625C12.8782 14.625 10.8943 14.6285 8.90963 14.6201C8.70965 14.6194 8.63063 14.6847 8.57221 14.8743C7.9826 16.7979 6.09761 18.133 4.18926 17.9897C2.04657 17.8289 0.378737 16.3063 0.0550661 14.2156C-0.307088 11.8776 1.14015 9.65832 3.37699 9.11966C5.62276 8.57889 7.88639 9.89079 8.57909 12.148C8.63956 12.3453 8.73302 12.3762 8.90688 12.3762C12.8748 12.3727 16.8433 12.3727 20.8112 12.3741C21.5204 12.3741 22.0049 12.8643 21.9822 13.5491C21.9616 14.1727 21.4819 14.6208 20.814 14.625C19.9034 14.6306 18.9929 14.6264 18.0824 14.6264C17.009 14.625 15.9356 14.625 14.8621 14.625ZM4.3961 11.2547C3.1832 11.254 2.19982 12.2505 2.19294 13.4887C2.18607 14.7163 3.17633 15.7374 4.37961 15.7445C5.59802 15.7508 6.59995 14.7325 6.59583 13.4929C6.59171 12.2547 5.6097 11.2561 4.3961 11.2547Z" fill="url(#paint1_linear_1_5415)" fill-opacity="0.8"/>
</g>
<g id="Vector_3" filter="url(#filter2_ii_1_5415)">
<path d="M14.8621 14.625C12.8782 14.625 10.8943 14.6285 8.90963 14.6201C8.70965 14.6194 8.63063 14.6847 8.57221 14.8743C7.9826 16.7979 6.09761 18.133 4.18926 17.9897C2.04657 17.8289 0.378737 16.3063 0.0550661 14.2156C-0.307088 11.8776 1.14015 9.65832 3.37699 9.11966C5.62276 8.57889 7.88639 9.89079 8.57909 12.148C8.63956 12.3453 8.73302 12.3762 8.90688 12.3762C12.8748 12.3727 16.8433 12.3727 20.8112 12.3741C21.5204 12.3741 22.0049 12.8643 21.9822 13.5491C21.9616 14.1727 21.4819 14.6208 20.814 14.625C19.9034 14.6306 18.9929 14.6264 18.0824 14.6264C17.009 14.625 15.9356 14.625 14.8621 14.625ZM4.3961 11.2547C3.1832 11.254 2.19982 12.2505 2.19294 13.4887C2.18607 14.7163 3.17633 15.7374 4.37961 15.7445C5.59802 15.7508 6.59995 14.7325 6.59583 13.4929C6.59171 12.2547 5.6097 11.2561 4.3961 11.2547Z" fill="white"/>
</g>
<g id="Vector_4" filter="url(#filter3_ii_1_5415)">
<path d="M22.0001 4.49339C21.9891 6.70283 20.3983 8.62363 18.3009 8.94247C16.1019 9.27677 14.0602 7.99296 13.4046 5.84883C13.3428 5.64727 13.2438 5.6248 13.0741 5.6255C9.1062 5.62831 5.13763 5.62831 1.16974 5.62691C0.474291 5.62691 -0.0101849 5.14442 0.00218465 4.47373C0.0118054 3.95051 0.367087 3.50806 0.868743 3.40974C1.01099 3.38165 1.15874 3.37603 1.30374 3.37603C5.21184 3.37462 9.11995 3.37252 13.028 3.37954C13.2486 3.38024 13.351 3.33038 13.4218 3.09651C13.9997 1.19468 15.928 -0.147422 17.8247 0.0127032C19.9536 0.19179 21.618 1.71157 21.9245 3.76159C21.9616 4.00389 21.9761 4.24969 22.0001 4.49339ZM17.6007 6.74497C18.8122 6.74006 19.797 5.73225 19.7935 4.49971C19.7901 3.25523 18.7902 2.24673 17.5697 2.25586C16.3665 2.26499 15.3769 3.29245 15.39 4.51797C15.4037 5.75964 16.3864 6.74989 17.6007 6.74497Z" fill="white"/>
</g>
</g>
</g>
<defs>
<filter id="filter0_i_1_5415" x="-0.000366211" y="8.99805" width="22.4687" height="9.48727" filterUnits="userSpaceOnUse" color-interpolation-filters="sRGB">
<feFlood flood-opacity="0" result="BackgroundImageFix"/>
<feBlend mode="normal" in="SourceGraphic" in2="BackgroundImageFix" result="shape"/>
<feColorMatrix in="SourceAlpha" type="matrix" values="0 0 0 0 0 0 0 0 0 0 0 0 0 0 0 0 0 0 127 0" result="hardAlpha"/>
<feOffset dx="0.485312" dy="0.485312"/>
<feGaussianBlur stdDeviation="0.242656"/>
<feComposite in2="hardAlpha" operator="arithmetic" k2="-1" k3="1"/>
<feColorMatrix type="matrix" values="0 0 0 0 0.127604 0 0 0 0 0.267969 0 0 0 0 0.408333 0 0 0 0.4 0"/>
<feBlend mode="normal" in2="shape" result="effect1_innerShadow_1_5415"/>
</filter>
<filter id="filter1_i_1_5415" x="-0.000366211" y="8.99829" width="22.4687" height="9.48727" filterUnits="userSpaceOnUse" color-interpolation-filters="sRGB">
<feFlood flood-opacity="0" result="BackgroundImageFix"/>
<feBlend mode="normal" in="SourceGraphic" in2="BackgroundImageFix" result="shape"/>
<feColorMatrix in="SourceAlpha" type="matrix" values="0 0 0 0 0 0 0 0 0 0 0 0 0 0 0 0 0 0 127 0" result="hardAlpha"/>
<feOffset dx="0.485312" dy="0.485312"/>
<feGaussianBlur stdDeviation="0.242656"/>
<feComposite in2="hardAlpha" operator="arithmetic" k2="-1" k3="1"/>
<feColorMatrix type="matrix" values="0 0 0 0 0.127604 0 0 0 0 0.267969 0 0 0 0 0.408333 0 0 0 0.4 0"/>
<feBlend mode="normal" in2="shape" result="effect1_innerShadow_1_5415"/>
</filter>
<filter id="filter2_ii_1_5415" x="-0.000366211" y="8.99829" width="22.4687" height="9.48727" filterUnits="userSpaceOnUse" color-interpolation-filters="sRGB">
<feFlood flood-opacity="0" result="BackgroundImageFix"/>
<feBlend mode="normal" in="SourceGraphic" in2="BackgroundImageFix" result="shape"/>
<feColorMatrix in="SourceAlpha" type="matrix" values="0 0 0 0 0 0 0 0 0 0 0 0 0 0 0 0 0 0 127 0" result="hardAlpha"/>
<feOffset dx="0.485312" dy="0.485312"/>
<feGaussianBlur stdDeviation="0.242656"/>
<feComposite in2="hardAlpha" operator="arithmetic" k2="-1" k3="1"/>
<feColorMatrix type="matrix" values="0 0 0 0 0.127604 0 0 0 0 0.267969 0 0 0 0 0.408333 0 0 0 0.4 0"/>
<feBlend mode="normal" in2="shape" result="effect1_innerShadow_1_5415"/>
<feColorMatrix in="SourceAlpha" type="matrix" values="0 0 0 0 0 0 0 0 0 0 0 0 0 0 0 0 0 0 127 0" result="hardAlpha"/>
<feOffset dx="0.485312" dy="0.485312"/>
<feGaussianBlur stdDeviation="0.242656"/>
<feComposite in2="hardAlpha" operator="arithmetic" k2="-1" k3="1"/>
<feColorMatrix type="matrix" values="0 0 0 0 0.127604 0 0 0 0 0.267969 0 0 0 0 0.408333 0 0 0 0.4 0"/>
<feBlend mode="normal" in2="effect1_innerShadow_1_5415" result="effect2_innerShadow_1_5415"/>
</filter>
<filter id="filter3_ii_1_5415" x="0.00195312" y="-0.000244141" width="22.4835" height="9.48067" filterUnits="userSpaceOnUse" color-interpolation-filters="sRGB">
<feFlood flood-opacity="0" result="BackgroundImageFix"/>
<feBlend mode="normal" in="SourceGraphic" in2="BackgroundImageFix" result="shape"/>
<feColorMatrix in="SourceAlpha" type="matrix" values="0 0 0 0 0 0 0 0 0 0 0 0 0 0 0 0 0 0 127 0" result="hardAlpha"/>
<feOffset dx="0.485312" dy="0.485312"/>
<feGaussianBlur stdDeviation="0.242656"/>
<feComposite in2="hardAlpha" operator="arithmetic" k2="-1" k3="1"/>
<feColorMatrix type="matrix" values="0 0 0 0 0.127604 0 0 0 0 0.267969 0 0 0 0 0.408333 0 0 0 0.4 0"/>
<feBlend mode="normal" in2="shape" result="effect1_innerShadow_1_5415"/>
<feColorMatrix in="SourceAlpha" type="matrix" values="0 0 0 0 0 0 0 0 0 0 0 0 0 0 0 0 0 0 127 0" result="hardAlpha"/>
<feOffset dx="0.485312" dy="0.485312"/>
<feGaussianBlur stdDeviation="0.242656"/>
<feComposite in2="hardAlpha" operator="arithmetic" k2="-1" k3="1"/>
<feColorMatrix type="matrix" values="0 0 0 0 0.52549 0 0 0 0 0.596078 0 0 0 0 0.67451 0 0 0 1 0"/>
<feBlend mode="normal" in2="effect1_innerShadow_1_5415" result="effect2_innerShadow_1_5415"/>
</filter>
<linearGradient id="paint0_linear_1_5415" x1="-0.00036638" y1="10.8735" x2="19.684" y2="79.1026" gradientUnits="userSpaceOnUse">
<stop stop-color="#48647D"/>
<stop offset="0.234375" stop-color="#6B8299"/>
<stop offset="0.442708" stop-color="#DAE2EB"/>
<stop offset="0.682292" stop-color="#8CA2B7"/>
<stop offset="1" stop-color="#EDF2F7"/>
</linearGradient>
<linearGradient id="paint1_linear_1_5415" x1="-0.00036638" y1="10.8737" x2="19.684" y2="79.1028" gradientUnits="userSpaceOnUse">
<stop stop-color="#48647D"/>
<stop offset="0.234375" stop-color="#6B8299"/>
<stop offset="0.442708" stop-color="#DAE2EB"/>
<stop offset="0.682292" stop-color="#8CA2B7"/>
<stop offset="1" stop-color="#EDF2F7"/>
</linearGradient>
<clipPath id="clip0_1_5415">
<rect width="22" height="18" fill="white"/>
</clipPath>
</defs>
</svg>
