<svg width="179" height="153" viewBox="0 0 179 153" fill="none" xmlns="http://www.w3.org/2000/svg">
<g id="Group">
<path id="Vector" opacity="0.5" fill-rule="evenodd" clip-rule="evenodd" d="M72.582 54.5415C72.582 53.9116 72.3318 53.3075 71.8864 52.8621C71.441 52.4167 70.8369 52.1665 70.207 52.1665C69.5771 52.1665 68.9731 52.4167 68.5277 52.8621C68.0823 53.3075 67.832 53.9116 67.832 54.5415V117.875C67.832 118.505 68.0823 119.109 68.5277 119.554C68.9731 120 69.5771 120.25 70.207 120.25C70.8369 120.25 71.441 120 71.8864 119.554C72.3318 119.109 72.582 118.505 72.582 117.875V54.5415Z" fill="white"/>
<g id="Vector_2" filter="url(#filter0_dd_1_5430)">
<path d="M94.2705 61.0015L93.6245 60.7418C88.6758 58.7625 83.2582 58.2652 78.0319 59.3105C74.8631 59.9438 72.582 62.726 72.582 65.9574V86.5119C72.582 89.3855 75.211 91.5407 78.0287 90.9771C83.2561 89.9312 88.6748 90.4285 93.6245 92.4085C98.9876 94.553 104.89 94.953 110.493 93.5516L111.171 93.3838C112.133 93.1436 112.987 92.5887 113.598 91.8072C114.209 91.0257 114.54 90.0625 114.54 89.0708V65.742C114.54 65.1649 114.409 64.5954 114.155 64.0768C113.902 63.5582 113.534 63.104 113.08 62.7488C112.625 62.3935 112.095 62.1465 111.531 62.0264C110.966 61.9064 110.382 61.9165 109.822 62.056C104.656 63.3468 99.2143 62.9799 94.2705 61.0015Z" fill="#F62C5D"/>
</g>
</g>
<defs>
<filter id="filter0_dd_1_5430" x="0.582031" y="0.776855" width="177.958" height="151.596" filterUnits="userSpaceOnUse" color-interpolation-filters="sRGB">
<feFlood flood-opacity="0" result="BackgroundImageFix"/>
<feColorMatrix in="SourceAlpha" type="matrix" values="0 0 0 0 0 0 0 0 0 0 0 0 0 0 0 0 0 0 127 0" result="hardAlpha"/>
<feOffset dx="16" dy="10"/>
<feGaussianBlur stdDeviation="24"/>
<feColorMatrix type="matrix" values="0 0 0 0 0.534167 0 0 0 0 0.645967 0 0 0 0 0.749167 0 0 0 0.58 0"/>
<feBlend mode="normal" in2="BackgroundImageFix" result="effect1_dropShadow_1_5430"/>
<feColorMatrix in="SourceAlpha" type="matrix" values="0 0 0 0 0 0 0 0 0 0 0 0 0 0 0 0 0 0 127 0" result="hardAlpha"/>
<feOffset dx="-16" dy="-2"/>
<feGaussianBlur stdDeviation="28"/>
<feColorMatrix type="matrix" values="0 0 0 0 1 0 0 0 0 1 0 0 0 0 1 0 0 0 1 0"/>
<feBlend mode="normal" in2="effect1_dropShadow_1_5430" result="effect2_dropShadow_1_5430"/>
<feBlend mode="normal" in="SourceGraphic" in2="effect2_dropShadow_1_5430" result="shape"/>
</filter>
</defs>
</svg>
