<svg width="25" height="25" viewBox="0 0 25 25" fill="none" xmlns="http://www.w3.org/2000/svg">
<g id="Group 47654">
<path id="Vector" d="M20.3247 22.2332C19.6328 22.8342 18.8547 23.3041 18.0381 23.71C16.6405 24.4051 15.16 24.8123 13.6051 24.9526C13.56 24.9565 13.5045 24.9389 13.481 25.0009C12.8296 25.0009 12.1788 25.0009 11.5273 25.0009C11.3008 24.9076 11.0566 24.9258 10.8203 24.8919C8.37112 24.5401 6.19933 23.5704 4.32652 21.9532C3.16654 20.9515 2.20891 19.782 1.5 18.4174C2.84602 17.3184 4.19139 16.2201 5.53742 15.1211C6.0035 16.2769 6.68173 17.2832 7.62695 18.1055C9.96846 20.1435 13.342 20.5123 16.0667 19.0243C16.1307 18.9891 16.1959 18.9571 16.2612 18.9238C16.3441 18.9891 16.4283 19.0537 16.5099 19.1203C17.7815 20.1572 19.0531 21.1955 20.3247 22.2332Z" fill="#28B346"/>
<path id="Vector_2" d="M5.53684 15.1196C4.19082 16.2186 2.84545 17.3169 1.49943 18.4159C0.797692 17.1616 0.371429 15.8153 0.141652 14.4004C0.0920414 14.0924 0.106402 13.7746 0 13.4751C0 12.8238 0 12.1731 0 11.5218C0.107708 11.2236 0.0926941 10.9064 0.141 10.599C0.348582 9.28467 0.746122 8.03298 1.34994 6.84719C1.3643 6.81913 1.3865 6.79498 1.40477 6.76953C1.77685 7.06973 2.15024 7.36862 2.52167 7.67013C3.50279 8.46696 4.48326 9.26575 5.46438 10.0632C5.25288 10.7883 5.09426 11.5205 5.07402 12.2808C5.04791 13.2584 5.21894 14.2001 5.53684 15.1196Z" fill="#FABA01"/>
<path id="Vector_3" d="M20.3247 22.2314C19.0531 21.1938 17.7815 20.1555 16.5093 19.1178C16.4277 19.0513 16.3434 18.9867 16.2605 18.9214C17.3474 18.2551 18.2404 17.395 18.8938 16.294C19.0805 15.9788 19.2352 15.6479 19.386 15.3138C19.4689 15.1298 19.4141 15.0978 19.2346 15.0984C17.8592 15.1037 16.4831 15.101 15.1077 15.101C14.408 15.101 13.7075 15.0965 13.0078 15.1043C12.8426 15.1063 12.7826 15.0632 12.7832 14.8876C12.7897 13.3821 12.7897 11.8765 12.7832 10.371C12.7826 10.1948 12.8426 10.1556 13.0078 10.1563C16.8663 10.1602 20.7242 10.1602 24.5828 10.1563C24.7479 10.1563 24.7995 10.2078 24.825 10.371C25.4249 14.1809 24.5012 17.5757 22.0565 20.5549C21.5435 21.1788 20.9749 21.7485 20.3247 22.2314Z" fill="#518EF7"/>
<path id="Vector_4" d="M5.46586 10.063C4.48539 9.26489 3.50492 8.46675 2.52315 7.66992C2.15172 7.36842 1.77898 7.06952 1.40625 6.76933C1.90497 5.73495 2.57145 4.81673 3.35479 3.98401C5.38883 1.82127 7.87852 0.500399 10.8212 0.11732C14.3456 -0.342114 17.5226 0.55065 20.3263 2.74601C20.4516 2.8439 20.4751 2.89089 20.3335 3.00575C19.0828 4.01925 17.8366 5.03992 16.5944 6.06451C16.4736 6.16436 16.3914 6.16762 16.2569 6.09062C12.2247 3.76865 7.19963 5.56005 5.5344 9.90901C5.51482 9.96122 5.48871 10.0115 5.46586 10.063Z" fill="#F04336"/>
</g>
</svg>
