<svg width="217" height="148" viewBox="0 0 217 148" fill="none" xmlns="http://www.w3.org/2000/svg">
<g id="Group 47572">
<g id="Vector" filter="url(#filter0_dd_1_5245)">
<path d="M145.095 36.6214C130.681 19.8272 112.436 39.9337 112.424 39.9468C112.423 39.9471 112.423 39.9465 112.423 39.9462C112.423 39.9459 112.422 39.9459 112.422 39.9462C112.422 39.9465 112.422 39.9471 112.421 39.9468C112.41 39.9337 94.1629 19.8272 79.7477 36.6214C67.9283 50.3922 82.1597 67.1266 95.7088 78.4591C102.806 84.395 106.354 87.3629 112.422 87.3629C118.489 87.363 122.038 84.3952 129.135 78.4597C142.684 67.1275 156.915 50.3928 145.095 36.6214Z" fill="#E3EDF7"/>
</g>
<g id="Vector_2" filter="url(#filter1_dd_1_5245)">
<path d="M114.397 42.5169C120.491 37.8916 126.549 34.7356 133.47 34.7356C137.821 34.7356 142.787 36.2149 146.277 38.1518C146.146 37.904 145.197 36.7409 145.095 36.6209C130.677 19.8212 112.423 39.9463 112.423 39.9463L112.422 39.9452L112.421 39.9463C112.421 39.9463 113.799 41.6724 114.397 42.5169Z" fill="url(#paint0_linear_1_5245)"/>
<path d="M113.989 42.806L114.288 43.2275L114.699 42.9152C120.761 38.3148 126.711 35.2356 133.47 35.2356C137.726 35.2356 142.609 36.688 146.035 38.589L147.51 39.4074L146.719 37.9175C146.664 37.8147 146.555 37.6633 146.452 37.5255C146.339 37.3745 146.202 37.1982 146.067 37.0282C145.8 36.6902 145.533 36.3635 145.475 36.2961L145.474 36.2953C141.798 32.0117 137.845 30.0501 133.971 29.5571C130.109 29.0658 126.379 30.0396 123.143 31.5296C119.907 33.02 117.136 35.0398 115.179 36.6812C114.2 37.5029 113.421 38.2324 112.886 38.7575C112.618 39.0201 112.411 39.2318 112.271 39.3786C112.2 39.452 112.147 39.5092 112.11 39.5484L112.09 39.5701L112.068 39.5926L112.067 39.5937L111.752 39.9098L112.03 40.2582L112.421 39.9464L112.03 40.2582L112.03 40.2583L112.03 40.2585L112.031 40.2594L112.034 40.263L112.046 40.2775L112.09 40.3333C112.129 40.3819 112.185 40.4523 112.254 40.5395C112.392 40.7139 112.582 40.9551 112.79 41.2226C113.21 41.7603 113.697 42.3944 113.989 42.806Z" stroke="url(#paint1_linear_1_5245)"/>
</g>
<g id="Vector_3" filter="url(#filter2_dd_1_5245)">
<path d="M149.408 46.1555C144.715 43.0836 140.116 40.9582 133.469 40.9582C124.915 40.9582 117.35 47.7234 107.772 56.2887C106.878 57.0883 105.953 57.9149 105.018 58.746C97.9087 65.0536 91.2125 68.1502 86.3788 69.671C88.1498 71.5877 90.0356 73.4349 91.957 75.1868C95.3296 73.8432 99.3085 71.8726 103.09 69.053C106.471 66.5318 109.602 63.7492 112.632 61.0575C116.134 57.9463 119.442 55.0079 122.781 52.7906C126.837 50.0977 130.38 48.8427 133.932 48.8427C140.242 48.8427 144.643 50.9333 148.574 53.736C149.352 51.2058 149.673 48.6644 149.408 46.1555Z" fill="url(#paint2_linear_1_5245)"/>
<path d="M149.905 46.1029L149.88 45.867L149.682 45.7371C144.941 42.6338 140.247 40.4582 133.469 40.4582C129.054 40.4582 124.927 42.2056 120.728 44.995C116.539 47.7775 112.23 51.631 107.457 55.9001L107.439 55.916L107.439 55.916C106.545 56.7155 105.621 57.5415 104.686 58.372C97.6344 64.6285 91.0018 67.6923 86.2287 69.194L85.4761 69.4308L86.0115 70.0103C87.7938 71.9392 89.69 73.7964 91.6202 75.5563L91.8514 75.7671L92.1421 75.6513C95.5435 74.2962 99.5635 72.3062 103.389 69.4539L103.389 69.4538C106.788 66.9184 109.935 64.1224 112.961 61.4335L112.964 61.4313C112.964 61.4313 112.964 61.4313 112.964 61.4313C116.472 58.3141 119.753 55.4012 123.057 53.2071C127.061 50.5491 130.508 49.3427 133.932 49.3427C140.111 49.3427 144.413 51.3827 148.284 54.1431L148.849 54.5456L149.052 53.883C149.847 51.2998 150.179 48.69 149.905 46.1029Z" stroke="url(#paint3_linear_1_5245)"/>
</g>
<g id="Vector_4" filter="url(#filter3_dd_1_5245)">
<path d="M116.725 65.7219C113.597 68.5 110.364 71.3723 106.772 74.0517C103.564 76.4439 100.264 78.2889 97.2159 79.6998C99.5152 81.5649 101.765 83.2641 103.834 84.7535C104.414 84.4697 104.962 84.195 105.465 83.9314C110.587 81.2554 115.059 76.7871 119.004 72.8449C124.318 67.5355 128.908 62.9495 134.396 62.9495C137.358 62.9495 139.983 63.6347 142.383 65.0367C143.755 63.2478 144.987 61.4197 146.026 59.5669C142.459 56.8426 139.086 55.0638 133.932 55.0638C128.719 55.065 123.161 60.0043 116.725 65.7219Z" fill="url(#paint4_linear_1_5245)"/>
<path d="M106.473 73.6509C103.298 76.0188 100.029 77.8469 97.0059 79.246L96.2782 79.5829L96.901 80.0881C99.2087 81.9601 101.467 83.665 103.542 85.1593L103.785 85.3342L104.054 85.2026C104.636 84.9177 105.188 84.6408 105.696 84.3744C110.886 81.6633 115.401 77.1516 119.328 73.2278L119.357 73.1986C122.022 70.536 124.469 68.0933 126.928 66.311C129.382 64.5327 131.799 63.4495 134.396 63.4495C137.276 63.4495 139.812 64.1142 142.13 65.4684L142.511 65.6908L142.779 65.3409C144.163 63.5367 145.41 61.6886 146.462 59.8114L146.674 59.4329L146.33 59.1695C142.712 56.4064 139.234 54.5638 133.932 54.5638H133.932C131.173 54.5644 128.377 55.8691 125.505 57.8367C122.635 59.8027 119.62 62.4814 116.418 65.3257L116.393 65.3481C113.263 68.1281 110.045 70.9862 106.473 73.6509ZM106.473 73.6509L106.772 74.0517L106.473 73.6509Z" stroke="url(#paint5_linear_1_5245)"/>
</g>
<g id="Vector_5" filter="url(#filter4_dd_1_5245)">
<path d="M123.362 77.262C119.42 81.2009 114.99 85.6254 109.625 88.7321C110.748 89.4656 111.697 90.0645 112.422 90.5109C116.731 87.8517 128.993 79.8393 138.246 69.9058C137.13 69.4314 135.886 69.1734 134.398 69.1734C131.458 69.1734 127.526 73.1022 123.362 77.262Z" fill="url(#paint6_linear_1_5245)"/>
<path d="M123.009 76.9083L123.009 76.9083C119.06 80.8542 114.674 85.2307 109.375 88.2994L108.672 88.7064L109.352 89.1506C110.478 89.8865 111.431 90.4878 112.16 90.9366L112.422 91.0983L112.684 90.9364C117.003 88.2711 129.312 80.2305 138.612 70.2466L139.098 69.7247L138.441 69.4456C137.258 68.9426 135.947 68.6734 134.398 68.6734C133.555 68.6734 132.678 68.9538 131.791 69.4071C130.903 69.8618 129.976 70.5054 129.026 71.2679C127.135 72.7865 125.096 74.8233 123.025 76.8916L123.009 76.9083Z" stroke="url(#paint7_linear_1_5245)"/>
</g>
<g id="Vector_6" filter="url(#filter5_dd_1_5245)">
<path d="M112.326 39.8455C110.909 38.3359 93.5684 20.52 79.7481 36.621C72.215 45.3971 75.2632 55.3778 81.9727 64.3951C82.1299 64.3704 82.287 64.3435 82.4431 64.3154C83.3068 64.1068 84.301 63.8253 85.401 63.4473C89.098 62.1777 94.7933 59.5219 100.929 54.0779C101.855 53.2558 102.776 52.4326 103.665 51.6374C107.369 48.3244 110.888 45.1784 114.396 42.517C113.798 41.6725 113.106 40.7696 112.326 39.8455ZM89.7756 33.2721L92.1485 35.1069L94.6149 33.4033L93.6141 36.2408L95.9869 38.0757L92.9955 37.9949L91.9947 40.8324L91.1465 37.9456L88.1551 37.8648L90.6215 36.1612L89.7756 33.2721ZM81.4467 42.4957L80.5985 39.6088L82.9714 41.4437L85.4389 39.74L84.4381 42.5776L86.8109 44.4124L83.8206 44.3317L82.8198 47.1692L81.9716 44.2823L78.9802 44.2016L81.4467 42.4957ZM86.0987 57.2441L85.0979 60.0816L84.2497 57.1947L81.2583 57.114L83.7248 55.4103L82.8766 52.5235L85.2495 54.3583L87.7159 52.6547L86.7151 55.4922L89.0879 57.327L86.0987 57.2441ZM95.3104 50.8826L94.3095 53.7201L93.4614 50.8333L90.47 50.7525L92.9364 49.0489L92.0883 46.162L94.4611 47.9969L96.9276 46.2932L95.9267 49.1308L98.3007 50.9645L95.3104 50.8826ZM104.521 44.5223L103.52 47.3598L102.672 44.473L99.6805 44.3922L102.147 42.6886L101.299 39.8017L103.672 41.6366L106.138 39.9329L105.137 42.7705L107.51 44.6053L104.521 44.5223Z" fill="#002868"/>
</g>
</g>
<defs>
<filter id="filter0_dd_1_5245" x="0.136806" y="-30.6524" width="216.214" height="178.597" filterUnits="userSpaceOnUse" color-interpolation-filters="sRGB">
<feFlood flood-opacity="0" result="BackgroundImageFix"/>
<feColorMatrix in="SourceAlpha" type="matrix" values="0 0 0 0 0 0 0 0 0 0 0 0 0 0 0 0 0 0 127 0" result="hardAlpha"/>
<feOffset dx="16.7122" dy="10.4451"/>
<feGaussianBlur stdDeviation="25.0682"/>
<feColorMatrix type="matrix" values="0 0 0 0 0.534167 0 0 0 0 0.645967 0 0 0 0 0.749167 0 0 0 0.58 0"/>
<feBlend mode="normal" in2="BackgroundImageFix" result="effect1_dropShadow_1_5245"/>
<feColorMatrix in="SourceAlpha" type="matrix" values="0 0 0 0 0 0 0 0 0 0 0 0 0 0 0 0 0 0 127 0" result="hardAlpha"/>
<feOffset dx="-16.7122" dy="-2.08902"/>
<feGaussianBlur stdDeviation="29.2463"/>
<feColorMatrix type="matrix" values="0 0 0 0 1 0 0 0 0 1 0 0 0 0 1 0 0 0 1 0"/>
<feBlend mode="normal" in2="effect1_dropShadow_1_5245" result="effect2_dropShadow_1_5245"/>
<feBlend mode="normal" in="SourceGraphic" in2="effect2_dropShadow_1_5245" result="shape"/>
</filter>
<filter id="filter1_dd_1_5245" x="83.0833" y="6.92865" width="101.658" height="81.0095" filterUnits="userSpaceOnUse" color-interpolation-filters="sRGB">
<feFlood flood-opacity="0" result="BackgroundImageFix"/>
<feColorMatrix in="SourceAlpha" type="matrix" values="0 0 0 0 0 0 0 0 0 0 0 0 0 0 0 0 0 0 127 0" result="hardAlpha"/>
<feOffset dx="4" dy="12"/>
<feGaussianBlur stdDeviation="16"/>
<feColorMatrix type="matrix" values="0 0 0 0 0.958333 0 0 0 0 0.400316 0 0 0 0 0 0 0 0 0.42 0"/>
<feBlend mode="normal" in2="BackgroundImageFix" result="effect1_dropShadow_1_5245"/>
<feColorMatrix in="SourceAlpha" type="matrix" values="0 0 0 0 0 0 0 0 0 0 0 0 0 0 0 0 0 0 127 0" result="hardAlpha"/>
<feOffset dx="-6" dy="-6"/>
<feGaussianBlur stdDeviation="8"/>
<feColorMatrix type="matrix" values="0 0 0 0 1 0 0 0 0 1 0 0 0 0 1 0 0 0 0.6 0"/>
<feBlend mode="normal" in2="effect1_dropShadow_1_5245" result="effect2_dropShadow_1_5245"/>
<feBlend mode="normal" in="SourceGraphic" in2="effect2_dropShadow_1_5245" result="shape"/>
</filter>
<filter id="filter2_dd_1_5245" x="56.5735" y="17.9582" width="129.926" height="102.389" filterUnits="userSpaceOnUse" color-interpolation-filters="sRGB">
<feFlood flood-opacity="0" result="BackgroundImageFix"/>
<feColorMatrix in="SourceAlpha" type="matrix" values="0 0 0 0 0 0 0 0 0 0 0 0 0 0 0 0 0 0 127 0" result="hardAlpha"/>
<feOffset dx="4" dy="12"/>
<feGaussianBlur stdDeviation="16"/>
<feColorMatrix type="matrix" values="0 0 0 0 0.958333 0 0 0 0 0.400316 0 0 0 0 0 0 0 0 0.42 0"/>
<feBlend mode="normal" in2="BackgroundImageFix" result="effect1_dropShadow_1_5245"/>
<feColorMatrix in="SourceAlpha" type="matrix" values="0 0 0 0 0 0 0 0 0 0 0 0 0 0 0 0 0 0 127 0" result="hardAlpha"/>
<feOffset dx="-6" dy="-6"/>
<feGaussianBlur stdDeviation="8"/>
<feColorMatrix type="matrix" values="0 0 0 0 1 0 0 0 0 1 0 0 0 0 1 0 0 0 0.6 0"/>
<feBlend mode="normal" in2="effect1_dropShadow_1_5245" result="effect2_dropShadow_1_5245"/>
<feBlend mode="normal" in="SourceGraphic" in2="effect2_dropShadow_1_5245" result="shape"/>
</filter>
<filter id="filter3_dd_1_5245" x="67.3403" y="32.0638" width="115.982" height="97.8512" filterUnits="userSpaceOnUse" color-interpolation-filters="sRGB">
<feFlood flood-opacity="0" result="BackgroundImageFix"/>
<feColorMatrix in="SourceAlpha" type="matrix" values="0 0 0 0 0 0 0 0 0 0 0 0 0 0 0 0 0 0 127 0" result="hardAlpha"/>
<feOffset dx="4" dy="12"/>
<feGaussianBlur stdDeviation="16"/>
<feColorMatrix type="matrix" values="0 0 0 0 0.958333 0 0 0 0 0.400316 0 0 0 0 0 0 0 0 0.42 0"/>
<feBlend mode="normal" in2="BackgroundImageFix" result="effect1_dropShadow_1_5245"/>
<feColorMatrix in="SourceAlpha" type="matrix" values="0 0 0 0 0 0 0 0 0 0 0 0 0 0 0 0 0 0 127 0" result="hardAlpha"/>
<feOffset dx="-6" dy="-6"/>
<feGaussianBlur stdDeviation="8"/>
<feColorMatrix type="matrix" values="0 0 0 0 1 0 0 0 0 1 0 0 0 0 1 0 0 0 0.6 0"/>
<feBlend mode="normal" in2="effect1_dropShadow_1_5245" result="effect2_dropShadow_1_5245"/>
<feBlend mode="normal" in="SourceGraphic" in2="effect2_dropShadow_1_5245" result="shape"/>
</filter>
<filter id="filter4_dd_1_5245" x="79.7189" y="46.1734" width="96.2307" height="89.5123" filterUnits="userSpaceOnUse" color-interpolation-filters="sRGB">
<feFlood flood-opacity="0" result="BackgroundImageFix"/>
<feColorMatrix in="SourceAlpha" type="matrix" values="0 0 0 0 0 0 0 0 0 0 0 0 0 0 0 0 0 0 127 0" result="hardAlpha"/>
<feOffset dx="4" dy="12"/>
<feGaussianBlur stdDeviation="16"/>
<feColorMatrix type="matrix" values="0 0 0 0 0.958333 0 0 0 0 0.400316 0 0 0 0 0 0 0 0 0.42 0"/>
<feBlend mode="normal" in2="BackgroundImageFix" result="effect1_dropShadow_1_5245"/>
<feColorMatrix in="SourceAlpha" type="matrix" values="0 0 0 0 0 0 0 0 0 0 0 0 0 0 0 0 0 0 127 0" result="hardAlpha"/>
<feOffset dx="-6" dy="-6"/>
<feGaussianBlur stdDeviation="8"/>
<feColorMatrix type="matrix" values="0 0 0 0 1 0 0 0 0 1 0 0 0 0 1 0 0 0 0.6 0"/>
<feBlend mode="normal" in2="effect1_dropShadow_1_5245" result="effect2_dropShadow_1_5245"/>
<feBlend mode="normal" in="SourceGraphic" in2="effect2_dropShadow_1_5245" result="shape"/>
</filter>
<filter id="filter5_dd_1_5245" x="48.1641" y="8.57498" width="101.174" height="98.5275" filterUnits="userSpaceOnUse" color-interpolation-filters="sRGB">
<feFlood flood-opacity="0" result="BackgroundImageFix"/>
<feColorMatrix in="SourceAlpha" type="matrix" values="0 0 0 0 0 0 0 0 0 0 0 0 0 0 0 0 0 0 127 0" result="hardAlpha"/>
<feOffset dx="3.8825" dy="11.6475"/>
<feGaussianBlur stdDeviation="15.53"/>
<feColorMatrix type="matrix" values="0 0 0 0 0.305882 0 0 0 0 0.356863 0 0 0 0 0.160784 0 0 0 0.42 0"/>
<feBlend mode="normal" in2="BackgroundImageFix" result="effect1_dropShadow_1_5245"/>
<feColorMatrix in="SourceAlpha" type="matrix" values="0 0 0 0 0 0 0 0 0 0 0 0 0 0 0 0 0 0 127 0" result="hardAlpha"/>
<feOffset dx="-5.82375" dy="-5.82375"/>
<feGaussianBlur stdDeviation="7.76499"/>
<feColorMatrix type="matrix" values="0 0 0 0 1 0 0 0 0 1 0 0 0 0 1 0 0 0 0.6 0"/>
<feBlend mode="normal" in2="effect1_dropShadow_1_5245" result="effect2_dropShadow_1_5245"/>
<feBlend mode="normal" in="SourceGraphic" in2="effect2_dropShadow_1_5245" result="shape"/>
</filter>
<linearGradient id="paint0_linear_1_5245" x1="109.438" y1="38.4173" x2="138.921" y2="8.0981" gradientUnits="userSpaceOnUse">
<stop stop-color="#F8AC75"/>
<stop offset="1" stop-color="#E6660A"/>
</linearGradient>
<linearGradient id="paint1_linear_1_5245" x1="111.124" y1="40.8771" x2="145.893" y2="36.134" gradientUnits="userSpaceOnUse">
<stop stop-color="white"/>
<stop offset="1" stop-color="#CD5B0A"/>
</linearGradient>
<linearGradient id="paint2_linear_1_5245" x1="80.8164" y1="64.0395" x2="156.357" y2="10.7759" gradientUnits="userSpaceOnUse">
<stop stop-color="#F8AC75"/>
<stop offset="1" stop-color="#E6660A"/>
</linearGradient>
<linearGradient id="paint3_linear_1_5245" x1="83.9604" y1="70.7279" x2="149.418" y2="64.6054" gradientUnits="userSpaceOnUse">
<stop stop-color="white"/>
<stop offset="1" stop-color="#CD5B0A"/>
</linearGradient>
<linearGradient id="paint4_linear_1_5245" x1="92.9147" y1="75.0844" x2="155.601" y2="35.6803" gradientUnits="userSpaceOnUse">
<stop stop-color="#F8AC75"/>
<stop offset="1" stop-color="#E6660A"/>
</linearGradient>
<linearGradient id="paint5_linear_1_5245" x1="95.3458" y1="80.8859" x2="146.053" y2="76.6577" gradientUnits="userSpaceOnUse">
<stop stop-color="white"/>
<stop offset="1" stop-color="#CD5B0A"/>
</linearGradient>
<linearGradient id="paint6_linear_1_5245" x1="107.103" y1="83.5619" x2="147.705" y2="62.7393" gradientUnits="userSpaceOnUse">
<stop stop-color="#F8AC75"/>
<stop offset="1" stop-color="#E6660A"/>
</linearGradient>
<linearGradient id="paint7_linear_1_5245" x1="108.529" y1="87.7313" x2="138.33" y2="85.7038" gradientUnits="userSpaceOnUse">
<stop stop-color="white"/>
<stop offset="1" stop-color="#CD5B0A"/>
</linearGradient>
</defs>
</svg>
