<svg width="29" height="28" viewBox="0 0 29 28" fill="none" xmlns="http://www.w3.org/2000/svg">
<g id="Frame" clip-path="url(#clip0_1_5445)">
<g id="Vector" filter="url(#filter0_ii_1_5445)">
<path d="M28.9527 10.6346C28.8278 10.2904 28.566 10.1323 28.219 10.0993C27.0384 9.98575 25.8578 9.87223 24.6772 9.76086C22.8311 9.58698 20.985 9.41095 19.1382 9.24785C18.9644 9.23276 18.8913 9.16163 18.8324 9.01721C18.677 8.63856 18.5152 8.26206 18.3506 7.88701C17.9122 6.88542 17.5241 5.86227 17.048 4.8772C17.0324 4.81326 17.0246 4.74572 16.9991 4.68608C16.4123 3.30153 15.8248 1.9177 15.2345 0.535299C15.0976 0.214129 14.8791 0.00217131 14.5059 1.58101e-05C14.1206 -0.00213969 13.9 0.216285 13.7588 0.548951C13.4572 1.25811 13.1564 1.96799 12.8542 2.67715C11.9524 4.79601 11.0513 6.91559 10.1489 9.03373C10.1091 9.12642 10.0907 9.23276 9.94877 9.23851C9.71393 9.24785 9.4798 9.27371 9.24495 9.29527C8.35453 9.37646 7.4634 9.45549 6.57298 9.54028C5.65489 9.62722 4.73751 9.72278 3.81871 9.809C2.90985 9.8945 2.00027 9.97569 1.08999 10.0526C0.648679 10.0899 0.230075 10.1603 -0.0012207 10.6123C-0.0012207 10.784 -0.0012207 10.9564 -0.0012207 11.1282C0.0988185 11.251 0.185377 11.389 0.301735 11.4932C1.24111 12.3345 2.18616 13.1687 3.12837 14.0065C4.4672 15.1978 5.80389 16.3912 7.14413 17.5803C7.26758 17.6902 7.33073 17.7944 7.29029 17.974C6.74752 20.3753 6.20546 22.7765 5.67689 25.1806C5.53215 25.8395 5.36116 26.4919 5.25828 27.1608C5.17598 27.6947 5.78189 28.2278 6.37007 27.8966C6.99442 27.5452 7.59679 27.1529 8.20908 26.7793C8.21973 26.3949 8.23746 26.0105 8.26159 25.6275C8.23746 26.0112 8.21902 26.3949 8.20908 26.7793C8.25946 26.7534 8.31125 26.7304 8.3595 26.7017C10.312 25.5262 12.266 24.3522 14.2157 23.1717C14.3959 23.0625 14.5335 23.0079 14.7428 23.1451C15.2799 23.4979 15.8404 23.8147 16.3917 24.146C18.4258 25.3696 20.4607 26.5918 22.4934 27.8182C22.812 28.0101 23.1291 28.0747 23.442 27.8333C23.7421 27.602 23.7776 27.2851 23.6974 26.9302C23.447 25.8251 23.2057 24.7186 22.9588 23.6128C22.5424 21.7455 22.123 19.8781 21.708 18.0107C21.6775 17.8742 21.6519 17.747 21.791 17.6234C23.0277 16.532 24.2572 15.4327 25.4882 14.3348C26.5567 13.3821 27.6252 12.4301 28.6909 11.4745C28.9427 11.2525 29.0782 10.9802 28.9527 10.6346Z" fill="#E3EDF7"/>
</g>
</g>
<defs>
<filter id="filter0_ii_1_5445" x="-2.91309" y="-2.91187" width="34.8252" height="33.8226" filterUnits="userSpaceOnUse" color-interpolation-filters="sRGB">
<feFlood flood-opacity="0" result="BackgroundImageFix"/>
<feBlend mode="normal" in="SourceGraphic" in2="BackgroundImageFix" result="shape"/>
<feColorMatrix in="SourceAlpha" type="matrix" values="0 0 0 0 0 0 0 0 0 0 0 0 0 0 0 0 0 0 127 0" result="hardAlpha"/>
<feOffset dx="2.91187" dy="2.91187"/>
<feGaussianBlur stdDeviation="3.39718"/>
<feComposite in2="hardAlpha" operator="arithmetic" k2="-1" k3="1"/>
<feColorMatrix type="matrix" values="0 0 0 0 0.534167 0 0 0 0 0.645967 0 0 0 0 0.749167 0 0 0 0.48 0"/>
<feBlend mode="normal" in2="shape" result="effect1_innerShadow_1_5445"/>
<feColorMatrix in="SourceAlpha" type="matrix" values="0 0 0 0 0 0 0 0 0 0 0 0 0 0 0 0 0 0 127 0" result="hardAlpha"/>
<feOffset dx="-2.91187" dy="-2.91187"/>
<feGaussianBlur stdDeviation="3.39718"/>
<feComposite in2="hardAlpha" operator="arithmetic" k2="-1" k3="1"/>
<feColorMatrix type="matrix" values="0 0 0 0 1 0 0 0 0 1 0 0 0 0 1 0 0 0 1 0"/>
<feBlend mode="normal" in2="effect1_innerShadow_1_5445" result="effect2_innerShadow_1_5445"/>
</filter>
<clipPath id="clip0_1_5445">
<rect width="29" height="28" fill="white"/>
</clipPath>
</defs>
</svg>
