<svg width="178" height="226" viewBox="0 0 178 226" fill="none" xmlns="http://www.w3.org/2000/svg">
<g id="Group 47608">
<g id="Vector 40" filter="url(#filter0_dd_1_11979)">
<path d="M94.5017 77.7223C78.9017 84.1223 73.0017 90.389 72.0017 92.7223C70.3351 90.0556 66.8017 84.2222 66.0017 82.2222C65.2017 80.2222 66.3351 79.3888 67.0017 79.2222C71.6684 76.0556 81.9017 69.3223 85.5017 67.7223C90.0017 65.7223 88.5017 67.7223 94.5017 77.7223Z" fill="#002868"/>
</g>
<g id="Vector 41" filter="url(#filter1_dd_1_11979)">
<path d="M36 28.2222C36 31.0222 40.6667 35.7222 43 37.7222C48.6 39.7222 55 53.2222 57.5 59.7222C56.6667 58.7222 54 55.8222 50 52.2222C45 47.7222 43 48.2222 40 50.2222C37.6 51.8222 40.3333 56.2222 42 58.2222C43.8333 60.2222 48 65.2222 50 69.2222C52.5 74.2222 60 78.7222 61.5 78.7222C62.7 78.7222 64.6667 77.0555 65.5 76.2222C69 74.0555 76.8 69.1222 80 66.7222C84 63.7222 83 64.2222 83 62.7222C83 61.2222 79.5 55.2222 72.5 46.2222C65.5 37.2222 43 24.2222 40 23.2222C37 22.2222 36 24.7222 36 28.2222Z" fill="url(#paint0_linear_1_11979)"/>
<path d="M42.6746 38.1018L42.7448 38.162L42.8318 38.1931C44.1089 38.6492 45.4897 39.7887 46.8985 41.4166C48.298 43.0337 49.6838 45.0839 50.9816 47.2884C52.9538 50.6382 54.7055 54.3146 55.9784 57.3048C54.6377 55.9007 52.7211 53.9985 50.3345 51.8505C47.8225 49.5898 45.9742 48.4963 44.312 48.2885C42.6189 48.0769 41.2348 48.7981 39.7226 49.8061C38.9765 50.3036 38.6331 51.0283 38.5673 51.8248C38.5034 52.599 38.6992 53.4419 39.0079 54.2505C39.6263 55.8707 40.7628 57.5186 41.6159 58.5423L41.6234 58.5513L41.6314 58.56C43.4585 60.5532 47.5854 65.511 49.5528 69.4458C50.8552 72.0507 53.43 74.4825 55.8284 76.2497C57.0339 77.138 58.2116 77.8706 59.1896 78.3837C59.6782 78.64 60.1234 78.8449 60.5019 78.9871C60.8646 79.1234 61.2171 79.2222 61.5 79.2222C61.9047 79.2222 62.3295 79.0849 62.7239 78.9026C63.1256 78.7169 63.5363 78.4652 63.9238 78.1946C64.6741 77.6707 65.3753 77.049 65.8119 76.6171C69.3303 74.4381 77.0935 69.527 80.3 67.1222C81.2996 66.3725 81.9983 65.8329 82.4801 65.4235C82.951 65.0232 83.2619 64.7091 83.4341 64.4077C83.6354 64.0554 83.6286 63.7567 83.5884 63.4848C83.5789 63.4208 83.5685 63.3613 83.5584 63.3029C83.5284 63.1296 83.5 62.966 83.5 62.7222C83.5 62.4531 83.4248 62.1341 83.3098 61.7923C83.1918 61.4414 83.0188 61.0291 82.7948 60.561C82.3464 59.6243 81.6799 58.4354 80.7995 57.0205C79.0378 54.1891 76.4019 50.4245 72.8947 45.9152C69.3373 41.3415 61.8952 35.8015 55.0238 31.3038C51.5774 29.048 48.2559 27.0425 45.6063 25.5374C42.9774 24.0441 40.9637 23.0164 40.1581 22.7479C39.3437 22.4764 38.6115 22.4245 37.9711 22.6089C37.3231 22.7954 36.8254 23.2077 36.459 23.7573C35.7474 24.8248 35.5 26.4533 35.5 28.2222C35.5 29.0468 35.8384 29.9542 36.3271 30.8467C36.8213 31.7494 37.4983 32.6885 38.2387 33.5896C39.7196 35.3921 41.4915 37.0877 42.6746 38.1018Z" stroke="url(#paint1_linear_1_11979)"/>
</g>
<g id="Subtract" filter="url(#filter2_dd_1_11979)">
<mask id="path-4-outside-1_1_11979" maskUnits="userSpaceOnUse" x="28" y="79.2222" width="114" height="102" fill="black">
<rect fill="white" x="28" y="79.2222" width="114" height="102"/>
<path fill-rule="evenodd" clip-rule="evenodd" d="M58 133.804C66.1627 134.712 74.4613 136.218 80.7453 138.578C82.077 139.078 82.7428 139.328 84.2816 140.384C85.8204 141.441 86.3327 142.017 87.3572 143.169C88.5949 144.56 89.8402 146.078 91.0765 147.584C94.9826 152.344 98.7988 156.994 102 157.222C107.6 157.622 107.333 156.056 106.5 155.222C101.408 150.934 90.152 137.832 79.2828 115.604C75.2121 107.279 73.1767 103.116 74.8848 97.3815C76.5929 91.6468 79.9686 89.6368 86.7202 85.6169C93.0238 81.8637 98.0676 80.2222 99.5 80.2222C102 80.2222 138 141.222 140 148.222C142 155.222 140.5 178.722 123.5 179.722C113.249 180.325 79.4363 180.209 52.3432 179.972H52.3431C44.7123 179.905 40.8968 179.872 37.9016 178.488C34.5623 176.946 31.8705 174.23 30.3573 170.878C29 167.87 29 164.038 29 156.374V135.722C29 134.065 30.3431 132.722 32 132.722C34.5183 132.606 37.9893 132.581 42 132.698V150.722C42 154.036 44.6863 156.722 48 156.722H52C55.3137 156.722 58 154.036 58 150.722V133.804ZM47 132.906C48.9382 133.011 50.9502 133.147 53 133.318V150.722C53 151.274 52.5523 151.722 52 151.722H48C47.4477 151.722 47 151.274 47 150.722V132.906ZM102.309 103.967C102.271 105.558 103.619 106.975 105.211 107.018C106.786 107.056 108.22 105.688 108.264 104.103C108.307 102.534 106.927 101.09 105.346 101.052C103.76 101.014 102.347 102.371 102.309 103.967ZM98.0267 95.6779C96.4349 95.705 95.0332 94.3479 95.0006 92.7519C94.968 91.1667 96.3371 89.7499 97.9289 89.7227C99.4936 89.6902 100.939 91.0907 100.966 92.6596C100.993 94.2339 99.6132 95.6507 98.0267 95.6779Z"/>
</mask>
<path fill-rule="evenodd" clip-rule="evenodd" d="M58 133.804C66.1627 134.712 74.4613 136.218 80.7453 138.578C82.077 139.078 82.7428 139.328 84.2816 140.384C85.8204 141.441 86.3327 142.017 87.3572 143.169C88.5949 144.56 89.8402 146.078 91.0765 147.584C94.9826 152.344 98.7988 156.994 102 157.222C107.6 157.622 107.333 156.056 106.5 155.222C101.408 150.934 90.152 137.832 79.2828 115.604C75.2121 107.279 73.1767 103.116 74.8848 97.3815C76.5929 91.6468 79.9686 89.6368 86.7202 85.6169C93.0238 81.8637 98.0676 80.2222 99.5 80.2222C102 80.2222 138 141.222 140 148.222C142 155.222 140.5 178.722 123.5 179.722C113.249 180.325 79.4363 180.209 52.3432 179.972H52.3431C44.7123 179.905 40.8968 179.872 37.9016 178.488C34.5623 176.946 31.8705 174.23 30.3573 170.878C29 167.87 29 164.038 29 156.374V135.722C29 134.065 30.3431 132.722 32 132.722C34.5183 132.606 37.9893 132.581 42 132.698V150.722C42 154.036 44.6863 156.722 48 156.722H52C55.3137 156.722 58 154.036 58 150.722V133.804ZM47 132.906C48.9382 133.011 50.9502 133.147 53 133.318V150.722C53 151.274 52.5523 151.722 52 151.722H48C47.4477 151.722 47 151.274 47 150.722V132.906ZM102.309 103.967C102.271 105.558 103.619 106.975 105.211 107.018C106.786 107.056 108.22 105.688 108.264 104.103C108.307 102.534 106.927 101.09 105.346 101.052C103.76 101.014 102.347 102.371 102.309 103.967ZM98.0267 95.6779C96.4349 95.705 95.0332 94.3479 95.0006 92.7519C94.968 91.1667 96.3371 89.7499 97.9289 89.7227C99.4936 89.6902 100.939 91.0907 100.966 92.6596C100.993 94.2339 99.6132 95.6507 98.0267 95.6779Z" fill="url(#paint2_linear_1_11979)"/>
<path d="M80.7453 138.578L81.0969 137.642L80.7453 138.578ZM58 133.804L58.1105 132.81L57 132.687V133.804H58ZM84.2816 140.384L83.7157 141.209L84.2816 140.384ZM87.3572 143.169L88.1044 142.504L87.3572 143.169ZM91.0765 147.584L90.3035 148.219L91.0765 147.584ZM102 157.222L102.071 156.225L102 157.222ZM106.5 155.222L107.207 154.515L107.177 154.485L107.144 154.457L106.5 155.222ZM79.2828 115.604L80.1812 115.164L79.2828 115.604ZM74.8848 97.3815L75.8432 97.667L74.8848 97.3815ZM86.7202 85.6169L87.2317 86.4762V86.4762L86.7202 85.6169ZM123.5 179.722L123.441 178.724L123.5 179.722ZM52.3432 179.972L52.352 178.972H52.3432V179.972ZM52.3431 179.972L52.3344 180.972H52.3431V179.972ZM37.9016 178.488L37.4823 179.396L37.4823 179.396L37.9016 178.488ZM30.3573 170.878L31.2687 170.466H31.2687L30.3573 170.878ZM32 132.722V133.722H32.0231L32.0461 133.721L32 132.722ZM42 132.698H43V131.727L42.029 131.698L42 132.698ZM53 133.318H54V132.399L53.0835 132.322L53 133.318ZM47 132.906L47.0539 131.907L46 131.851V132.906H47ZM105.211 107.018L105.183 108.018L105.186 108.018L105.211 107.018ZM102.309 103.967L103.309 103.991V103.991L102.309 103.967ZM108.264 104.103L107.264 104.075L107.264 104.075L108.264 104.103ZM105.346 101.052L105.37 100.052L105.37 100.052L105.346 101.052ZM95.0006 92.7519L96.0004 92.7315L96.0004 92.7313L95.0006 92.7519ZM98.0267 95.6779L98.0438 96.6777L98.0438 96.6777L98.0267 95.6779ZM97.9289 89.7227L97.946 90.7226L97.9498 90.7225L97.9289 89.7227ZM100.966 92.6596L101.966 92.6423V92.6423L100.966 92.6596ZM81.0969 137.642C74.697 135.238 66.3016 133.721 58.1105 132.81L57.8895 134.798C66.0237 135.702 74.2256 137.197 80.3937 139.514L81.0969 137.642ZM84.8476 139.56C83.217 138.441 82.4692 138.157 81.0969 137.642L80.3937 139.514C81.6848 139.999 82.2687 140.215 83.7157 141.209L84.8476 139.56ZM88.1044 142.504C87.0561 141.325 86.4821 140.682 84.8476 139.56L83.7157 141.209C85.1587 142.199 85.6092 142.708 86.6099 143.833L88.1044 142.504ZM91.8495 146.95C90.6158 145.446 89.3577 143.913 88.1044 142.504L86.6099 143.833C87.8321 145.207 89.0646 146.709 90.3035 148.219L91.8495 146.95ZM102.071 156.225C101.492 156.183 100.812 155.934 100.022 155.441C99.235 154.95 98.3926 154.251 97.4986 153.384C95.7054 151.646 93.8133 149.343 91.8495 146.95L90.3035 148.219C92.2459 150.585 94.2148 152.986 96.1066 154.82C97.055 155.74 98.011 156.543 98.9624 157.137C99.9096 157.729 100.907 158.147 101.929 158.22L102.071 156.225ZM105.793 155.929C105.931 156.067 105.959 156.156 105.958 156.15C105.954 156.132 105.948 156.078 105.971 156.008C105.995 155.937 106.03 155.91 106.018 155.92C105.968 155.963 105.726 156.111 105.046 156.205C104.391 156.296 103.433 156.322 102.071 156.225L101.929 158.22C103.367 158.322 104.476 158.303 105.32 158.186C106.139 158.073 106.828 157.853 107.307 157.449C107.862 156.982 108.043 156.343 107.914 155.735C107.804 155.213 107.486 154.794 107.207 154.515L105.793 155.929ZM78.3845 116.043C89.2939 138.353 100.626 151.583 105.856 155.987L107.144 154.457C102.189 150.285 91.0101 137.31 80.1812 115.164L78.3845 116.043ZM73.9264 97.0961C72.0869 103.272 74.3579 107.808 78.3845 116.043L80.1812 115.164C76.0663 106.749 74.2665 102.961 75.8432 97.667L73.9264 97.0961ZM86.2086 84.7577C82.8626 86.7499 80.2315 88.3115 78.2399 90.1149C76.2 91.9622 74.8315 94.0572 73.9264 97.0961L75.8432 97.667C76.6461 94.9711 77.8195 93.1938 79.5824 91.5974C81.3937 89.9572 83.8262 88.5039 87.2317 86.4762L86.2086 84.7577ZM99.5 79.2222C99.0013 79.2222 98.3102 79.3558 97.5201 79.5731C96.7055 79.7971 95.7091 80.1321 94.5696 80.5819C92.2895 81.4821 89.4044 82.8548 86.2086 84.7577L87.2317 86.4762C90.3396 84.6257 93.1282 83.3011 95.304 82.4422C96.3924 82.0125 97.3195 81.7025 98.0505 81.5015C98.806 81.2937 99.2824 81.2222 99.5 81.2222V79.2222ZM140.962 147.947C140.681 146.964 139.852 145.159 138.681 142.84C137.492 140.487 135.906 137.518 134.055 134.161C130.354 127.447 125.583 119.156 120.798 111.087C116.013 103.019 111.209 95.1635 107.442 89.3209C105.56 86.4018 103.928 83.9725 102.684 82.2673C102.064 81.4178 101.525 80.7276 101.09 80.2419C100.875 80.0017 100.663 79.7863 100.463 79.623C100.364 79.5416 100.245 79.4545 100.111 79.3836C99.9917 79.32 99.7745 79.2222 99.5 79.2222V81.2222C99.3036 81.2222 99.1809 81.1541 99.1718 81.1492C99.1487 81.137 99.1558 81.1375 99.1977 81.1717C99.2809 81.2397 99.4134 81.3677 99.5998 81.5759C99.968 81.9872 100.461 82.6144 101.068 83.4465C102.279 85.1046 103.885 87.4956 105.761 90.4047C109.51 96.2183 114.299 104.05 119.077 112.107C123.855 120.163 128.615 128.435 132.304 135.127C134.149 138.473 135.722 141.419 136.895 143.741C138.086 146.098 138.819 147.73 139.038 148.497L140.962 147.947ZM123.559 180.72C132.644 180.186 137.513 173.6 139.825 166.533C142.129 159.496 142.024 151.665 140.962 147.947L139.038 148.497C139.976 151.779 140.121 159.199 137.925 165.911C135.737 172.594 131.356 178.258 123.441 178.724L123.559 180.72ZM52.3345 180.972C79.4072 181.208 113.264 181.326 123.559 180.72L123.441 178.724C113.233 179.324 79.4653 179.209 52.352 178.972L52.3345 180.972ZM52.3431 180.972H52.3432V178.972H52.3431V180.972ZM37.4823 179.396C39.1297 180.157 40.9627 180.526 43.3012 180.72C45.6289 180.914 48.5338 180.938 52.3344 180.972L52.3519 178.972C48.5215 178.938 45.7033 178.913 43.4668 178.727C41.2411 178.542 39.6688 178.203 38.321 177.58L37.4823 179.396ZM29.4458 171.289C31.058 174.861 33.9245 177.753 37.4823 179.396L38.321 177.58C35.2001 176.139 32.683 173.6 31.2687 170.466L29.4458 171.289ZM28 156.374C28 160.191 27.9994 163.108 28.1724 165.446C28.3462 167.794 28.6991 169.635 29.4458 171.289L31.2687 170.466C30.6581 169.113 30.3324 167.534 30.1669 165.298C30.0006 163.052 30 160.221 30 156.374H28ZM28 135.722V156.374H30V135.722H28ZM32 131.722C29.7909 131.722 28 133.513 28 135.722H30C30 134.617 30.8954 133.722 32 133.722V131.722ZM42.029 131.698C38.0004 131.581 34.5033 131.605 31.9539 131.723L32.0461 133.721C34.5332 133.606 37.9783 133.582 41.971 133.698L42.029 131.698ZM41 132.698V150.722H43V132.698H41ZM41 150.722C41 154.588 44.134 157.722 48 157.722V155.722C45.2386 155.722 43 153.484 43 150.722H41ZM48 157.722H52V155.722H48V157.722ZM52 157.722C55.866 157.722 59 154.588 59 150.722H57C57 153.484 54.7614 155.722 52 155.722V157.722ZM59 150.722V133.804H57V150.722H59ZM53.0835 132.322C51.0233 132.149 49.0014 132.013 47.0539 131.907L46.9461 133.905C48.875 134.009 50.8771 134.144 52.9165 134.315L53.0835 132.322ZM54 150.722V133.318H52V150.722H54ZM52 152.722C53.1046 152.722 54 151.827 54 150.722H52V152.722ZM48 152.722H52V150.722H48V152.722ZM46 150.722C46 151.827 46.8954 152.722 48 152.722V150.722H46ZM46 132.906V150.722H48V132.906H46ZM105.238 106.018C104.196 105.99 103.284 105.03 103.309 103.991L101.31 103.943C101.258 106.086 103.042 107.959 105.183 108.018L105.238 106.018ZM107.264 104.075C107.236 105.114 106.255 106.043 105.235 106.018L105.186 108.018C107.317 108.069 109.205 106.262 109.264 104.13L107.264 104.075ZM105.322 102.052C106.356 102.077 107.292 103.066 107.264 104.075L109.264 104.131C109.323 102.002 107.499 100.103 105.37 100.052L105.322 102.052ZM103.309 103.991C103.334 102.94 104.295 102.027 105.322 102.052L105.37 100.052C103.225 100.001 101.361 101.802 101.31 103.943L103.309 103.991ZM94.0008 92.7723C94.0445 94.9151 95.897 96.7143 98.0438 96.6777L98.0097 94.678C96.9727 94.6957 96.0218 93.7806 96.0004 92.7315L94.0008 92.7723ZM97.9119 88.7229C95.7699 88.7594 93.9567 90.6303 94.0008 92.7724L96.0004 92.7313C95.9792 91.7031 96.9043 90.7403 97.946 90.7226L97.9119 88.7229ZM101.966 92.6423C101.929 90.5248 100.031 88.6787 97.9081 88.7229L97.9498 90.7225C98.9559 90.7016 99.9485 91.6566 99.9661 92.6769L101.966 92.6423ZM98.0438 96.6777C100.175 96.6413 102.003 94.7763 101.966 92.6423L99.9661 92.6768C99.9836 93.6914 99.0512 94.6602 98.0096 94.678L98.0438 96.6777Z" fill="url(#paint3_linear_1_11979)" mask="url(#path-4-outside-1_1_11979)"/>
</g>
</g>
<defs>
<filter id="filter0_dd_1_11979" x="37.7266" y="45.0254" width="92.7752" height="91.6969" filterUnits="userSpaceOnUse" color-interpolation-filters="sRGB">
<feFlood flood-opacity="0" result="BackgroundImageFix"/>
<feColorMatrix in="SourceAlpha" type="matrix" values="0 0 0 0 0 0 0 0 0 0 0 0 0 0 0 0 0 0 127 0" result="hardAlpha"/>
<feOffset dx="4" dy="12"/>
<feGaussianBlur stdDeviation="16"/>
<feColorMatrix type="matrix" values="0 0 0 0 0.958333 0 0 0 0 0.400316 0 0 0 0 0 0 0 0 0.42 0"/>
<feBlend mode="normal" in2="BackgroundImageFix" result="effect1_dropShadow_1_11979"/>
<feColorMatrix in="SourceAlpha" type="matrix" values="0 0 0 0 0 0 0 0 0 0 0 0 0 0 0 0 0 0 127 0" result="hardAlpha"/>
<feOffset dx="-6" dy="-6"/>
<feGaussianBlur stdDeviation="8"/>
<feColorMatrix type="matrix" values="0 0 0 0 1 0 0 0 0 1 0 0 0 0 1 0 0 0 0.6 0"/>
<feBlend mode="normal" in2="effect1_dropShadow_1_11979" result="effect2_dropShadow_1_11979"/>
<feBlend mode="normal" in="SourceGraphic" in2="effect2_dropShadow_1_11979" result="shape"/>
</filter>
<filter id="filter1_dd_1_11979" x="7" y="-0.00012207" width="113.111" height="123.722" filterUnits="userSpaceOnUse" color-interpolation-filters="sRGB">
<feFlood flood-opacity="0" result="BackgroundImageFix"/>
<feColorMatrix in="SourceAlpha" type="matrix" values="0 0 0 0 0 0 0 0 0 0 0 0 0 0 0 0 0 0 127 0" result="hardAlpha"/>
<feOffset dx="4" dy="12"/>
<feGaussianBlur stdDeviation="16"/>
<feColorMatrix type="matrix" values="0 0 0 0 0.958333 0 0 0 0 0.400316 0 0 0 0 0 0 0 0 0.42 0"/>
<feBlend mode="normal" in2="BackgroundImageFix" result="effect1_dropShadow_1_11979"/>
<feColorMatrix in="SourceAlpha" type="matrix" values="0 0 0 0 0 0 0 0 0 0 0 0 0 0 0 0 0 0 127 0" result="hardAlpha"/>
<feOffset dx="-6" dy="-6"/>
<feGaussianBlur stdDeviation="8"/>
<feColorMatrix type="matrix" values="0 0 0 0 1 0 0 0 0 1 0 0 0 0 1 0 0 0 0.6 0"/>
<feBlend mode="normal" in2="effect1_dropShadow_1_11979" result="effect2_dropShadow_1_11979"/>
<feBlend mode="normal" in="SourceGraphic" in2="effect2_dropShadow_1_11979" result="shape"/>
</filter>
<filter id="filter2_dd_1_11979" x="0" y="57.2222" width="177.686" height="167.942" filterUnits="userSpaceOnUse" color-interpolation-filters="sRGB">
<feFlood flood-opacity="0" result="BackgroundImageFix"/>
<feColorMatrix in="SourceAlpha" type="matrix" values="0 0 0 0 0 0 0 0 0 0 0 0 0 0 0 0 0 0 127 0" result="hardAlpha"/>
<feOffset dx="4" dy="12"/>
<feGaussianBlur stdDeviation="16"/>
<feColorMatrix type="matrix" values="0 0 0 0 0.958333 0 0 0 0 0.400316 0 0 0 0 0 0 0 0 0.42 0"/>
<feBlend mode="normal" in2="BackgroundImageFix" result="effect1_dropShadow_1_11979"/>
<feColorMatrix in="SourceAlpha" type="matrix" values="0 0 0 0 0 0 0 0 0 0 0 0 0 0 0 0 0 0 127 0" result="hardAlpha"/>
<feOffset dx="-6" dy="-6"/>
<feGaussianBlur stdDeviation="8"/>
<feColorMatrix type="matrix" values="0 0 0 0 1 0 0 0 0 1 0 0 0 0 1 0 0 0 0.6 0"/>
<feBlend mode="normal" in2="effect1_dropShadow_1_11979" result="effect2_dropShadow_1_11979"/>
<feBlend mode="normal" in="SourceGraphic" in2="effect2_dropShadow_1_11979" result="shape"/>
</filter>
<linearGradient id="paint0_linear_1_11979" x1="31.8484" y1="60.5751" x2="108.273" y2="35.8695" gradientUnits="userSpaceOnUse">
<stop stop-color="#F8AC75"/>
<stop offset="1" stop-color="#E6660A"/>
</linearGradient>
<linearGradient id="paint1_linear_1_11979" x1="34.195" y1="71.4633" x2="83.3869" y2="69.3539" gradientUnits="userSpaceOnUse">
<stop stop-color="white"/>
<stop offset="1" stop-color="#CD5B0A"/>
</linearGradient>
<linearGradient id="paint2_linear_1_11979" x1="19.158" y1="147.616" x2="188.377" y2="75.3115" gradientUnits="userSpaceOnUse">
<stop stop-color="#F8AC75"/>
<stop offset="1" stop-color="#E6660A"/>
</linearGradient>
<linearGradient id="paint3_linear_1_11979" x1="24.7209" y1="167.145" x2="141.18" y2="160.544" gradientUnits="userSpaceOnUse">
<stop stop-color="white"/>
<stop offset="1" stop-color="#CD5B0A"/>
</linearGradient>
</defs>
</svg>
