<svg width="711" height="476" viewBox="0 0 711 476" fill="none" xmlns="http://www.w3.org/2000/svg">
<path opacity="0.3" fill-rule="evenodd" clip-rule="evenodd" d="M236.126 84.4884C225.809 83.7719 205.174 81.2169 205.174 81.2169L199.004 142.922C199.004 142.922 221.924 145.142 233.385 145.971C250.344 147.199 284.263 149.093 284.263 149.093L285.946 86.8265C285.946 86.8265 252.733 85.6418 236.126 84.4884Z" fill="#35D187" stroke="#24272C" stroke-width="2" stroke-linecap="round" stroke-linejoin="round"/>
<path opacity="0.3" fill-rule="evenodd" clip-rule="evenodd" d="M421.688 57.6567L421.127 59.3396H420.006L420.566 64.9491V68.3149L416.079 71.1197L415.518 72.8025L414.396 74.4854V76.1683L416.079 76.7292L417.201 78.4121L416.64 80.6559L416.079 82.3388L416.64 83.4607L416.079 84.0217L416.64 85.1436L416.079 88.5093L418.884 90.7532H421.127L422.81 92.436L425.054 92.997L427.297 95.2408L428.98 97.4846L430.663 98.6066H432.907L435.15 100.85L435.711 102.533V107.021H436.272L436.833 108.704L438.516 109.826L437.394 111.509L437.955 115.435L439.638 118.801H443.003L444.125 121.606L477.78 118.24L477.219 115.996L477.78 114.874V113.191L476.658 112.63L476.097 110.387L475.536 107.021V104.777L476.097 103.094V101.411L477.219 99.1675L476.097 98.0456L476.658 94.6799L477.219 92.997L478.902 91.8751L477.78 90.1922V86.8265L479.463 84.0217L478.902 82.3388L480.585 80.6559L481.146 77.8511L481.706 75.6073L482.828 73.9244H481.706L481.146 75.6073L480.024 77.2902H479.463V78.9731L478.341 80.095L478.902 81.2169L478.341 81.7778H477.78L476.097 82.3388L474.975 84.5826L473.854 85.7045L472.732 87.3874L471.61 86.8265V85.1436L472.732 82.3388L473.854 80.6559L475.536 79.534V78.4121L473.854 77.2902L474.975 73.9244H474.415L472.732 74.4854H472.171L473.293 72.2416L472.171 69.4368L470.488 68.3149H468.805V66.632L467.123 66.071L463.196 65.5101L460.953 66.071L458.709 64.9491L451.417 63.2663L445.247 62.1443L443.564 59.9005L441.881 59.3396L437.955 58.2176L435.711 59.3396V58.2176L436.833 54.2909L435.711 53.73L432.907 55.4129L431.224 55.9738L427.297 58.2176L423.932 58.7786L421.688 57.6567Z" fill="#35D187" stroke="#24272C" stroke-width="2" stroke-linecap="round" stroke-linejoin="round"/>
<path opacity="0.3" fill-rule="evenodd" clip-rule="evenodd" d="M559.113 184.994V185.555H559.674V186.677H560.235V187.799H560.796L561.357 188.921H563.04L563.601 189.482L565.283 190.043L566.966 188.36L567.527 187.238L569.771 188.36L570.892 187.238H573.136L573.697 186.116L573.136 184.994L574.258 184.433L575.38 184.994L577.623 183.311L578.184 183.872L580.428 182.189L579.867 181.628L580.989 180.506V179.945H579.867V178.823L580.428 177.141L582.672 173.775L583.233 171.531L582.672 170.97L584.354 169.287L583.794 168.726L584.915 167.043V164.8L585.476 164.239H586.598L587.72 165.36H589.964L591.085 164.239V162.556L591.646 161.995V160.312L592.207 159.19L592.768 158.629L594.451 159.19L595.012 156.946H596.134V156.385L597.256 155.263V154.141L598.377 152.458V150.776L598.938 149.654L598.377 148.532L598.938 147.971L605.669 151.337L606.23 147.971V146.849L605.108 146.288L604.548 145.166H603.987L604.548 144.044L602.304 144.605L600.06 143.483L599.499 144.044L598.938 145.166H597.256L596.695 146.849L595.573 147.41H593.89L592.768 145.727V147.41L591.085 149.093H589.403L588.842 150.215L587.72 151.897L585.476 154.141L583.794 146.288L571.453 148.532L568.649 134.508L566.966 135.63L568.649 136.752L568.088 138.435L568.649 140.117L568.088 142.361V145.166L567.527 148.532V150.776L564.722 152.458V154.141L562.479 156.385L561.357 155.263L559.674 156.385V157.507L558.552 158.068L557.991 160.312L557.43 161.434L557.991 161.995V163.117L556.87 164.239H556.309V163.117L555.187 162.556L554.065 163.678L553.504 165.36V166.482L554.065 169.287L552.943 169.848V171.531L549.578 173.214L550.138 174.897L549.578 177.141L551.821 179.384L552.382 180.506L554.626 183.311L557.43 184.994H559.113Z" fill="#35D187" stroke="#24272C" stroke-width="2" stroke-linecap="round" stroke-linejoin="round"/>
<path opacity="0.3" fill-rule="evenodd" clip-rule="evenodd" d="M616.327 154.141L617.449 153.019L615.766 151.337L615.205 152.458L615.766 153.019L616.327 154.141Z" fill="#35D187" stroke="#24272C" stroke-width="2" stroke-linecap="round" stroke-linejoin="round"/>
<path opacity="0.3" fill-rule="evenodd" clip-rule="evenodd" d="M140.108 57.6567V55.9738L140.669 55.4129V54.291L139.547 52.0471L145.717 13.3411C145.717 13.3411 113.94 7.83515 98.0518 4.80171C93.3731 3.90845 84.0158 1.56097 84.0158 1.56097L83.4549 2.68289L84.0158 5.48767H85.6986V7.7315L85.1377 9.97533H84.0158L83.4549 8.85342L82.894 7.7315L81.2112 5.48767L80.0894 6.04863L81.2112 6.60959L82.3331 7.7315L81.2112 8.29246L79.5285 7.17055L77.8457 6.60959L78.4066 8.29246L81.2112 9.41438L82.3331 8.29246L83.4549 9.97533L81.7722 12.2192L82.3331 13.902L83.4549 17.2678L84.5767 17.8287L84.0158 16.1459L82.894 13.3411L83.4549 11.6582H84.5767L85.6986 12.2192V14.463V16.1459L86.8204 16.7068L85.6986 18.3897L84.0158 20.0726V21.7554V23.4383L83.4549 26.2431L82.3331 27.926L81.2112 27.365L79.5285 29.0479L78.9676 29.6088L77.2848 29.0479L76.163 29.6088L74.4802 29.0479L75.6021 27.365L77.2848 25.6821L78.4066 26.2431L79.5285 25.1212L80.6503 26.8041L81.2112 23.4383L80.0894 22.8773L80.6503 20.6335C80.0567 20.6335 82.3331 20.6335 82.3331 20.6335L82.894 18.9506L78.9676 21.1945L77.8457 21.7554L75.6021 23.4383L76.7239 24.5602H77.8457L76.7239 25.1212H73.9193L74.4802 23.9993L76.7239 21.7554L78.4066 20.0726V18.3897H79.5285V19.5116L81.2112 17.8287L80.0894 14.463V16.1459L78.4066 14.463L77.8457 15.0239L76.163 13.3411H74.4802L68.3101 11.0972L66.0665 9.97533L64.9446 8.85342L61.0182 6.60959L59.8964 9.41438V12.7801L61.5791 15.0239L62.14 17.2678L61.5791 21.7554L62.701 23.4383L62.14 26.8041H63.8228V27.926L66.0665 29.0479L63.2619 29.6088L62.701 30.7308L62.14 30.1698V31.8527H64.3837L65.5055 33.5355H63.8228L63.2619 35.7794L63.8228 37.4622H62.14L61.5791 36.3403L61.0182 38.5842H62.14L63.2619 39.1451H65.5055L66.0665 39.7061H67.7492L68.3101 41.3889L69.432 41.9499H71.1147L72.7975 43.6328L73.9193 46.4376L73.3584 50.3643V51.4862L77.2848 52.6081L78.9676 53.73L82.894 52.6081L84.5767 52.0471L87.9422 52.6081L90.7468 53.73L91.3078 55.4129L93.5514 54.8519L94.1123 55.4129L98.0388 54.8519L100.843 55.4129L103.648 54.8519L108.696 54.291L110.379 53.73L115.427 54.8519L117.11 53.73L140.108 57.6567Z" fill="#35D187" stroke="#24272C" stroke-width="2" stroke-linecap="round" stroke-linejoin="round"/>
<path opacity="0.3" fill-rule="evenodd" clip-rule="evenodd" d="M638.203 50.9252L658.396 45.3156L658.957 45.8766L659.517 46.9985L658.396 49.2423L660.078 51.4861L659.517 52.0471V53.169L657.835 55.9738L657.274 56.5348H656.152L655.591 57.6567L656.152 59.3395V61.0224V63.2662L655.591 63.8272V66.071L655.03 67.1929V68.8758L654.469 69.4368L655.03 72.8025L655.591 73.3635L655.03 75.6073L655.591 76.7292V78.4121L655.03 78.973V80.6559L657.274 82.3388L647.738 84.0217L647.177 83.4607L644.934 73.3635V72.2416L643.812 71.1196L642.69 72.2416V68.8758L642.129 68.3149V67.7539L641.568 67.1929L641.007 65.5101H640.446V62.7053L641.007 61.5834L639.885 59.9005L639.324 57.6567L638.763 56.5348V53.73L638.203 53.169V50.9252Z" fill="#35D187" stroke="#24272C" stroke-width="2" stroke-linecap="round" stroke-linejoin="round"/>
<path opacity="0.3" fill-rule="evenodd" clip-rule="evenodd" d="M635.959 186.677V185.555H636.52V182.75L635.398 181.067H631.472L632.032 182.75L630.35 182.189L629.228 183.311V181.628L626.423 180.506V178.823H624.741H623.058L621.936 177.702L618.009 178.263V177.141L622.497 176.58L623.058 177.702L623.619 176.019L624.18 177.702H626.423H626.984V178.823L630.35 180.506L631.472 179.384L630.35 178.823V177.702L629.228 177.141H627.545L623.619 173.775V172.653L627.545 176.019H629.228L628.106 174.897L628.667 173.214L630.911 174.897L630.35 173.214L628.667 172.092L626.423 171.531L625.301 169.848L623.619 169.287L621.375 167.604L619.692 165.361H618.57L616.888 164.8L617.449 164.239H619.692L623.619 168.165H624.741L626.984 170.409V169.287L628.667 170.409V168.165L628.106 167.043L629.228 166.482L627.545 165.921L625.301 165.361L624.741 164.239L623.058 163.678L621.936 164.239L619.692 163.678L618.009 161.995V160.873L616.327 162.556H614.083V161.434V160.873V157.507L615.205 156.385L616.327 155.824V154.141L615.766 153.019L615.205 152.458H613.522L612.961 151.337H610.718L609.596 150.215L610.157 148.532L608.474 147.971H606.23L605.669 151.337L598.938 147.971L598.377 148.532L598.938 149.654L598.377 150.776V152.458L597.256 154.141V155.263L596.134 156.385V156.946H595.012L594.451 159.19L592.768 158.629L592.207 159.19L591.646 160.312V161.995L591.085 162.556V164.239L589.964 165.361H587.72L586.598 164.239H585.476L584.915 164.8V167.043L583.794 168.726L584.354 169.287L582.672 170.97L583.233 171.531L582.672 173.775L580.428 177.141L579.867 178.823V179.945H580.989V180.506L579.867 181.628L580.428 182.189L578.184 183.872L577.623 183.311L575.38 184.994L574.258 184.433L573.136 184.994L573.697 186.116L573.136 187.238H570.892L569.771 188.36L567.527 187.238L566.966 188.36L565.283 190.043L563.6 189.482L563.04 188.921H561.357L560.796 187.799H560.235V186.677H559.674V185.555H559.113L555.187 190.604L551.26 192.847V194.53L550.138 195.652V196.774L547.334 197.896L546.773 199.579L540.603 202.945L565.283 199.018V199.579L635.959 186.677ZM636.52 163.117V164.239L635.959 164.8L636.52 165.921L635.398 167.604L634.837 169.287V171.531L634.276 173.775L634.837 176.019L635.398 176.58L635.959 174.897V171.531L636.52 169.848L638.203 170.409V167.043L639.324 164.8L638.763 163.678V161.995L636.52 163.117Z" fill="#35D187" stroke="#24272C" stroke-width="2" stroke-linecap="round" stroke-linejoin="round"/>
<path opacity="0.3" fill-rule="evenodd" clip-rule="evenodd" d="M164.788 123.289L155.252 200.701C155.252 200.701 172.387 203.098 180.955 204.016C193.328 205.342 218.075 207.432 218.075 207.432L223.123 145.166L199.004 142.922L200.687 127.776L164.788 123.289Z" fill="#35D187" stroke="#24272C" stroke-width="2" stroke-linecap="round" stroke-linejoin="round"/>
<path fill-rule="evenodd" clip-rule="evenodd" d="M293.799 219.773L332.502 220.334V250.626H334.185L337.551 253.992L339.233 253.431H340.355L340.916 252.309L343.16 254.553V256.236H345.964L349.33 257.357L351.013 256.796L352.695 258.479L354.378 257.357H357.744V259.04L359.426 259.601L360.548 261.845L363.914 259.04L364.475 260.723H365.597L367.279 261.845L369.523 260.723L370.645 263.528L372.889 259.601L375.693 261.284L377.376 260.723L378.498 261.845L381.863 262.967H382.985L383.546 261.284L386.351 260.723H387.472L390.838 259.601L393.082 260.162L395.325 259.04L398.691 260.162L400.373 261.845L402.056 262.967L405.422 263.528L407.665 264.65L408.226 264.089H411.031L411.592 264.65V273.064H412.153L412.714 289.332L414.396 291.015L416.079 293.259V295.503L417.201 296.624V297.185L418.323 298.307V299.99L419.445 301.112L420.006 301.673V303.356L420.567 303.917L420.006 304.478V307.844L419.445 309.526L418.323 311.77V313.453L417.762 314.575L418.884 316.819L418.323 319.063L417.201 320.185L416.079 322.428L415.518 323.55L416.64 325.233H414.396L409.348 328.038H407.105L404.3 328.599L405.422 326.916L405.983 325.233L404.861 324.672L403.739 325.233L402.617 326.355L400.373 325.794L400.934 328.038L402.056 329.721L403.178 330.843L402.617 331.965L400.373 334.209L399.252 333.648L399.813 336.452L396.447 339.257L393.082 341.501L389.155 342.062L388.594 343.184H385.79V342.062L384.107 343.184L382.985 342.062L381.863 340.94L382.424 343.745L380.741 343.184L379.62 342.062L379.059 342.623L380.18 344.867L381.302 345.428L380.18 346.55L382.424 345.989V347.111L379.62 348.793L377.376 345.989L376.815 347.672V350.476L376.254 351.598L375.693 349.354L372.328 351.598L371.767 352.72L372.889 353.842L374.571 352.72L372.328 356.086L367.84 355.525L367.279 356.647L368.962 357.208L371.206 358.891L368.962 364.5L367.84 363.378L366.158 364.5L363.914 362.256L364.475 364.5L363.914 365.061L364.475 365.622L367.279 366.183L368.401 365.622L367.84 369.549L367.279 370.11V373.476H368.401L368.962 376.841L368.401 377.963L370.084 380.768L371.206 383.573L372.328 384.134L371.767 386.378L370.645 387.5L368.401 386.939L366.158 384.695H358.305L355.5 382.451L352.135 381.89L349.891 379.646H345.964V377.963L344.843 377.402L343.721 372.915L342.038 370.671L340.916 369.549V366.744L339.794 365.061L340.355 363.939V362.256L339.794 360.574L337.551 359.452L334.746 357.208L334.185 355.525L331.942 352.159L330.259 351.037L329.137 349.354L328.015 345.428L326.332 343.184L325.771 341.501L324.089 339.257V336.452L322.406 335.331V334.209L318.479 331.965V330.843L316.236 330.282V328.599H315.114L313.431 325.794H309.505L306.139 325.233H303.335L301.091 324.111L299.969 325.794L296.043 326.355L293.799 329.721L293.238 332.526L292.116 334.209L289.312 337.013V338.135L285.946 337.013L284.264 335.331H282.02L280.337 333.087L277.533 332.526L274.167 329.16L272.484 328.599L270.801 326.916L270.241 324.672L269.119 322.428L268.558 320.746L269.119 319.063L266.875 315.136V313.453L265.192 310.648L262.388 308.405L260.144 307.844L257.339 304.478V303.356L255.096 301.673L252.852 299.429L251.169 298.307L249.487 297.185L247.804 295.503V293.259L246.682 292.698L245.56 292.137L243.877 290.454V288.771L291.555 291.015L293.799 219.773Z" fill="#39FFA1" stroke="#24272C" stroke-width="2" stroke-linecap="round" stroke-linejoin="round"/>
<path opacity="0.3" fill-rule="evenodd" clip-rule="evenodd" d="M458.709 238.285L535.555 229.31V225.383L536.116 224.822L538.359 225.383L538.92 222.017L542.286 219.212H545.09L549.017 214.725H551.26L551.821 211.92H552.943L553.504 210.237L555.187 209.676L555.748 210.798H556.869L557.991 207.993L560.796 207.432L561.918 207.993L563.6 204.067L564.722 202.945H565.283V199.018L540.603 202.945L539.481 204.067L487.877 209.115H484.511L485.072 210.798V211.92L467.684 213.603L467.123 214.164L466.001 213.042V214.164L466.562 216.408H465.44L466.001 218.09H464.879L466.001 219.773L464.879 220.334L464.318 222.017L465.44 222.578L466.001 223.139H464.318V224.261L464.879 224.822L462.074 226.505L462.635 228.749V229.871H461.513L460.953 232.114L460.392 233.797L461.513 236.041H459.831L458.709 238.285Z" fill="#35D187" stroke="#24272C" stroke-width="2" stroke-linecap="round" stroke-linejoin="round"/>
<path opacity="0.3" fill-rule="evenodd" clip-rule="evenodd" d="M555.187 225.383L551.26 227.066L550.138 228.749L548.456 232.114L551.26 233.236L551.821 233.797L553.504 234.919L555.748 234.358V236.041L557.43 237.163L557.991 238.846L558.552 239.407L560.235 240.529L560.796 242.212H561.918L562.479 243.334L565.283 244.455L566.966 247.26H568.649L570.331 248.943V250.065L572.014 250.626V251.748L573.136 252.309V253.431H574.819L577.623 255.114V256.236L578.745 257.918L579.306 260.162L579.867 261.284H581.55L582.111 262.406L583.794 264.65V266.894L584.915 268.577L585.476 268.016H586.598H587.72L588.281 266.333V264.65L589.403 265.772L587.72 262.967L586.598 260.723L587.159 260.162L588.842 262.967L589.964 263.528L589.403 261.284L590.525 262.406L591.085 264.089L592.207 262.967L591.646 261.284L590.525 260.723L589.403 260.162L591.646 259.601L593.329 260.162L594.451 259.04V257.918H596.134L597.816 256.797L598.938 255.675L597.816 254.553V253.431H598.938L599.499 254.553L600.621 253.431L601.743 252.309V250.065L602.865 249.504L603.987 250.065L605.108 248.382L604.547 247.26L606.791 246.138L605.108 245.577V243.894L606.23 242.212V245.016L607.913 239.968L609.596 237.163L612.4 234.358L596.134 222.578L581.55 224.822L580.989 222.578L578.745 220.895L577.623 222.017L577.062 220.334L560.235 222.578L557.991 223.7L556.309 224.261L555.748 225.383H555.187Z" fill="#35D187" stroke="#24272C" stroke-width="2" stroke-linecap="round" stroke-linejoin="round"/>
<path opacity="0.3" fill-rule="evenodd" clip-rule="evenodd" d="M310.771 118.674C302.309 118.529 285.385 117.679 285.385 117.679L285.946 86.8265H286.507L287.068 72.8026C287.068 72.8026 318.318 73.3635 334.185 73.3635C346.737 73.3635 372.327 72.8026 372.327 72.8026L371.767 74.4854L370.645 76.1683L368.962 77.2902L370.645 80.656L372.888 81.2169L374.01 82.8998L374.571 110.387H372.888V111.509L374.01 112.631L373.449 114.313L374.571 115.435L374.01 119.923L372.888 121.606L374.571 125.533H373.449L372.327 123.85V122.728H370.645L370.084 122.167L368.401 121.606H366.718L365.036 119.923L362.231 120.484H358.305L357.183 121.606H355.5L351.013 118.801C351.013 118.801 324.185 118.903 310.771 118.674Z" fill="#35D187" stroke="#24272C" stroke-width="2" stroke-linecap="round" stroke-linejoin="round"/>
<path opacity="0.3" fill-rule="evenodd" clip-rule="evenodd" d="M667.37 91.3141L669.614 99.1675V101.411L670.736 100.85L671.858 99.7285H673.54V98.6065V97.4846L672.979 96.3627L673.54 95.2408H672.418L672.979 94.1189L672.418 92.997L672.979 92.436V91.3141H672.418L671.858 89.6312L667.37 91.3141Z" fill="#35D187" stroke="#24272C" stroke-width="2" stroke-linecap="round" stroke-linejoin="round"/>
<path opacity="0.3" d="M708.566 441.128L709.072 441.505L709.006 441.568L708.706 441.64L708.954 441.774L708.677 441.895L708.424 441.92L708.227 441.837L708.069 441.647L707.877 441.717L708.302 442.099L708.433 442.311V442.632L707.836 442.178L706.31 441.532L706.278 441.423L706.947 441.182L707.782 441.049L708.566 441.128ZM710 446.658L709.839 446.839L709.094 447.06L708.936 447.193L708.55 447.74L708.462 447.952L708.27 448.025L707.95 447.883L707.577 448.117L707.145 448.526L705.183 449.802L704.828 450.177L704.199 450.199L703.383 450.608L702.548 450.775L701.834 450.127L702.258 449.953L702.394 449.928L702.92 449.682L703.394 449.28L703.776 448.806L704.047 448.343L704.259 448.117L706.31 446.974L706.68 446.909L707.742 446.884L709.207 446.412L709.618 446.426L710 446.658ZM658.769 453.025L661.845 452.623L664.557 451.263L664.961 451.177L666.12 451.179L666.531 451.053L667.52 450.45L669.023 449.773L669.782 449.59L670.593 449.612L671.015 449.362L672.779 448.765L673.976 448.704L676.139 447.42L678.511 447.311L679.626 446.494L681.239 446.439L681.46 446.112L681.837 446.039L682.122 446.222L682.271 446.344L682.544 446.36L682.756 446.119L682.867 445.757L683.167 445.739L683.219 446.161L683.847 446.252L684.03 446.494L684.337 446.789L684.755 446.658L685.561 446.071L685.48 445.863L685.005 445.951L684.425 445.89L683.892 445.633L683.425 445.409L685.43 445.337L685.902 445.265L686.257 445.243L686.729 445.188L687.049 444.856L687.162 444.405L687.826 444.321L689.203 444.226L689.536 443.797L689.877 443.741L690.31 443.869L691.252 443.743L691.83 443.836L692.512 444.181L692.76 443.939L692.862 443.578H693.045L693.124 443.704L693.045 443.93L693.013 444.181L693.203 444.057L693.449 443.829L693.578 443.662L694.285 444.176L694.833 444.253L695.093 443.858L696.041 444.181L697.035 443.962L697.39 443.447L697.539 443.163L697.706 442.934L697.943 442.91L698.031 443.095L698.275 444.615L698.645 445.821L698.892 446.119L698.894 446.514L699.172 446.642L699.422 446.658L699.736 446.335L699.752 446.625L699.914 446.801L700.4 447.139L700.181 447.442L700.235 447.7L699.998 447.813L699.583 447.489L699.278 447.598V447.927L699.693 448.205L699.501 448.517L699.16 448.585L698.616 448.506L698.191 448.847L697.785 449.258L697.288 449.59L696.918 449.953L696.602 450.588L696.173 452.438L696.374 453.223L696.173 453.856L696.062 453.998L695.489 454.366L695.403 454.59L695.979 455.333L695.631 456.008L694.825 457.015L693.578 458.02L692.955 458.219L692.293 458.323L691.706 458.463L691.394 458.664L690.703 459.262L690.522 459.357L689.673 459.626L689.156 459.974L687.856 461.405L687.512 461.555L687.223 461.649L686.959 461.76L686.787 461.981L686.605 461.848L686.548 461.796L686.48 461.665L686.749 461.464L686.771 461.288L686.598 461.157L686.264 461.071L685.902 461.744L685.631 461.943L685.2 461.972L684.416 462.166L684.129 462.196L683.931 462.076L683.759 461.925L683.56 461.803L683.145 461.744L682.887 461.782L682.454 461.972L681.857 462.331L681.268 463.149L680.685 463.291L680.008 463.056L679.378 462.684L678.802 462.557L678.33 462.848L677.957 463.031L677.716 463.291L677.343 463.51L676.458 463.878L676.219 464.129L676.013 464.407L675.706 464.585L675.194 464.533L675.04 464.716L674.866 464.858L674.565 464.594L674.087 464.739L673.021 465.285L672.786 465.292L671.856 465.263L670.727 465.655L670.607 465.256L670.322 465.213L669.983 465.441L669.71 465.78L669.782 465.981L670.166 465.845L669.992 466.39L669.547 466.884L668.983 467.284L668.443 467.575L667.565 467.846L667.174 468.033L666.856 468.113L666.713 468.176L666.641 468.321L666.664 468.539L666.748 468.826L666.21 468.944L665.727 468.795L664.873 468.341L664.297 468.499L663.654 468.621L662.983 468.851L662.547 468.865L662.281 469.325L661.917 469.727L661.535 469.96L661.192 470.028L660.208 470.258L659.492 470.127L659.272 470.459L659.688 471.064L659.388 471.141L658.778 470.662L658.546 470.452L658.275 469.639L658.828 469.104L658.986 468.944L659.223 468.783L659.388 468.603L659.41 468.352L659.246 468.228L658.932 468.176L658.582 468.368L658.182 468.33L658.015 467.797L658.103 467.455L658.311 467.171L658.096 466.918L657.825 466.482L658.015 466.092L657.672 465.152L657.602 464.014L657.735 463.711L657.893 463.413L657.933 463.038L657.642 462.785L657.191 462.598L656.274 461.367L655.842 460.924L655.174 461.019L654.641 461.057L653.921 460.351L653.494 460.028L653.108 459.587L653.087 459.38L653.79 458.874L654.331 458.386L654.772 457.995L655.079 457.618L655.576 456.846L655.397 456.186L654.923 455.798L654.641 455.082L654.916 454.237L656.152 453.388L657.631 452.934L658.769 453.025ZM639.515 474.073L639.275 474.192L639.004 474.253L638.851 474.215L638.589 474.012L637.659 473.833L637.342 473.512L637.383 473.027L637.647 472.742L639.228 472.173L639.406 472.16L639.815 472.349L639.901 472.543L639.799 472.785L639.698 473.395L639.614 473.557L639.567 473.711L639.614 473.962L639.515 474.073Z" fill="#35D187" stroke="#24272C" stroke-width="2" stroke-linecap="round" stroke-linejoin="round"/>
<path opacity="0.3" fill-rule="evenodd" clip-rule="evenodd" d="M565.283 113.752L568.649 134.508L571.453 148.532L628.667 137.313L629.228 135.63L630.35 134.508H633.154L633.715 133.386L635.398 132.264V131.142L639.324 127.776V126.654L635.959 124.411H634.837L634.276 122.167L632.593 122.728L632.032 120.484L632.593 118.801L633.154 117.679L632.032 116.557V115.435L633.154 114.313L634.276 112.07V110.948L635.959 109.265L634.837 108.143H633.154H631.471L630.35 106.46V105.338V103.655L628.667 102.533L627.545 103.094L626.984 101.972L625.301 101.411L574.258 112.07L573.697 108.143L565.283 113.752Z" fill="#35D187" stroke="#24272C" stroke-width="2" stroke-linecap="round" stroke-linejoin="round"/>
<path opacity="0.3" fill-rule="evenodd" clip-rule="evenodd" d="M129.45 118.24L133.938 90.1922L135.059 87.9484V86.2655L136.181 85.1436L135.059 84.0217L132.816 83.4607L133.377 80.095L136.181 76.7293L138.425 74.4854L138.986 72.8026L141.229 69.4368L141.79 68.3149L144.595 64.9491L144.034 62.1444L140.669 59.3396V57.6567L117.11 53.73L115.427 54.8519L110.379 53.73L108.696 54.291L103.648 54.8519L100.843 55.4129L98.0388 54.8519L94.1124 55.4129L93.5514 54.8519L91.3078 55.4129L90.7468 53.73L87.9423 52.6081L84.5768 52.0471L78.9676 53.73L77.2848 52.6081L73.3584 51.4862V50.3643L73.9193 46.4376L72.7975 43.6328L71.1147 41.9499L69.432 42.5109H67.7492L67.1883 40.828L64.9446 41.3889L63.8228 40.828L63.2619 41.9499L61.5791 40.267V43.0718L60.4573 44.1937V46.4376L61.0182 47.5595L59.8964 48.6814L60.4573 50.9252H59.3355L55.97 60.4615L55.409 62.1444L55.97 63.2663L55.409 64.3882L54.8481 65.5101V66.632L53.7263 67.7539L52.6044 72.8026L51.4826 75.6073L52.0435 76.7293L50.9217 77.2902L49.2389 80.095H50.3608V81.7779L49.2389 81.2169L48.1171 82.8998L47.5562 81.7779L45.8734 85.7046L44.1907 89.0703L44.7516 91.3141L44.1907 94.6799L43.6298 98.0456V100.289L44.7516 102.533L94.1124 112.631L129.45 118.24Z" fill="#35D187" stroke="#24272C" stroke-width="2" stroke-linecap="round" stroke-linejoin="round"/>
<path opacity="0.3" fill-rule="evenodd" clip-rule="evenodd" d="M294.921 211.359C294.921 211.359 329.492 212.298 346.777 212.207C364.829 212.111 400.934 210.798 400.934 210.798L401.495 219.212L404.3 235.48L405.422 263.528L402.056 262.967L400.373 261.845L398.691 260.162L397.008 259.601L395.325 259.04L393.082 260.162L390.838 259.601L387.472 260.723H386.35L383.546 261.284L382.985 262.967H381.863L380.18 262.406L378.498 261.845L377.376 260.723L375.693 261.284L372.888 259.601L370.645 263.528L369.523 260.723L367.279 261.845L365.597 260.723H364.475L363.914 259.04L360.548 261.845L359.426 259.601L357.744 259.04V257.357H354.378L352.695 258.479L351.013 256.797L349.33 257.357L345.964 256.236H343.16V254.553L340.916 252.309L340.355 253.431H339.233L337.551 253.992L335.868 252.309L334.185 250.626H332.502V220.334L294.921 219.773V211.359Z" fill="#35D187" stroke="#24272C" stroke-width="2" stroke-linecap="round" stroke-linejoin="round"/>
<path opacity="0.3" fill-rule="evenodd" clip-rule="evenodd" d="M515.362 126.093L520.41 166.482L521.532 165.36L523.214 166.482L524.336 165.36L525.458 166.482H526.58L528.263 169.848L529.945 170.409L532.75 169.848L534.433 171.531L535.555 172.092L536.676 170.409H538.92L540.042 171.531L540.603 170.97H542.286L542.847 169.848L545.09 168.165L546.212 170.97L548.456 171.531L549.578 173.214L550.699 172.653L552.943 171.531V169.848L554.065 169.287L553.504 166.482V165.36L554.065 163.678L555.187 162.556L556.309 163.117V164.239H556.869L557.991 163.117V161.995L557.43 161.434L557.991 160.312L558.552 158.068L559.674 157.507V156.385L561.357 155.263L562.479 156.385L564.722 154.141V152.458L567.527 150.776V148.532L568.088 145.166V142.361L568.649 140.117L568.088 138.434L568.649 136.752L566.966 135.63L568.649 134.508L565.283 113.752L556.309 119.362L552.382 123.85L550.699 124.411H548.456L546.212 125.532L544.529 126.093L543.968 127.215L540.603 126.654H539.481L538.359 127.215L536.676 126.654L540.042 124.972H538.92L537.798 125.532L534.994 124.411L532.189 123.85L531.067 123.289L515.362 126.093Z" fill="#35D187" stroke="#24272C" stroke-width="2" stroke-linecap="round" stroke-linejoin="round"/>
<path opacity="0.3" fill-rule="evenodd" clip-rule="evenodd" d="M330.259 73.3635C315.777 73.3635 287.068 72.8025 287.068 72.8025L288.19 26.804C288.19 26.804 309.317 27.5227 319.881 27.6015C334.372 27.7096 363.353 27.365 363.353 27.365L365.036 31.8526L364.475 33.5355V39.706L367.84 47.5594L368.401 50.3642V54.8519L368.962 57.6567V58.7786L369.523 62.7053L370.084 64.9491L371.767 67.1929L372.328 72.8025C372.328 72.8025 344.197 73.3635 330.259 73.3635Z" fill="#35D187" stroke="#24272C" stroke-width="2" stroke-linecap="round" stroke-linejoin="round"/>
<path opacity="0.3" fill-rule="evenodd" clip-rule="evenodd" d="M565.283 199.579L635.959 186.677L638.203 188.921L640.446 192.286L637.642 190.043L638.203 191.725L635.398 190.043L634.276 190.604L637.081 192.286L635.959 192.847L633.715 192.286L635.398 193.969L632.032 192.286V193.408L633.715 194.53L632.032 195.652H629.789L629.228 193.408V191.165H628.106V194.53L629.228 196.213V197.896L632.032 197.335L633.154 196.213L634.276 197.335L635.959 196.774L637.081 195.091L638.203 196.774L637.642 198.457L638.763 199.018L637.642 200.14H639.324L639.885 197.896L639.324 196.213H641.007L641.568 195.091L642.69 197.335V199.018V200.701L641.568 200.14L641.007 200.701L639.885 204.067L638.763 205.188H636.52L635.398 204.067L634.276 205.188L633.715 204.067L634.837 202.945L631.471 203.506L632.593 205.188H629.228L626.984 204.628L628.106 206.31L631.471 206.871H634.837V207.993L632.593 209.115L634.276 209.676L632.593 211.92H630.911L627.545 210.237L629.789 213.042L632.032 213.603H633.154L634.276 211.92L635.398 213.042L638.203 211.359L635.959 215.847L634.276 214.725L632.593 215.847L629.789 217.53L628.106 216.408V218.09L626.423 220.334L625.862 218.09H624.74L625.301 219.212L624.74 219.773L625.862 220.895L623.619 222.578L621.936 225.383L620.814 228.188V229.871L619.692 227.627V232.675H615.766H615.205L614.083 233.797L612.4 234.358L596.134 222.578L581.55 224.822L580.989 222.578L578.745 220.895L577.623 222.017L577.062 220.334L560.235 222.578L556.309 224.261L555.748 225.383H555.187L551.26 227.066L535.555 229.31V225.383L536.115 224.822L538.359 225.383L538.92 222.017L542.286 219.212H545.09L549.017 214.725H551.26L551.821 211.92H552.943L553.504 210.237L555.187 209.676L555.748 210.798H556.869L557.991 207.993L560.796 207.432L561.918 207.993L563.6 204.067L564.722 202.945H565.283V199.579Z" fill="#35D187" stroke="#24272C" stroke-width="2" stroke-linecap="round" stroke-linejoin="round"/>
<path opacity="0.3" fill-rule="evenodd" clip-rule="evenodd" d="M129.877 118.543C141.514 120.312 164.788 123.289 164.788 123.289L153.57 212.481L153.009 213.603L151.887 215.847H150.204L149.643 213.603L148.521 214.164L146.839 213.042L144.595 214.164L144.034 216.408L144.595 218.09L144.034 219.212L144.595 222.017L144.034 223.7L144.595 226.505V228.749L143.473 229.31V231.553L85.6986 158.068L94.1124 112.63C94.1124 112.63 118.142 116.759 129.877 118.543Z" fill="#35D187" stroke="#24272C" stroke-width="2" stroke-linecap="round" stroke-linejoin="round"/>
<path opacity="0.3" fill-rule="evenodd" clip-rule="evenodd" d="M573.697 108.143L574.258 112.07L625.301 101.411L626.984 101.972L627.545 103.094L628.667 102.533L630.35 103.655V106.46L631.472 108.143H634.837L635.959 109.265L646.055 112.63V112.07L645.494 110.387L644.373 109.265V107.582H644.934L645.494 108.704L646.055 109.826L646.616 110.387L647.177 114.874L648.86 113.191L649.421 112.07L648.299 110.387L650.543 107.582L649.421 106.46L647.738 95.2408H647.177L647.738 84.0216L647.177 83.4607L644.934 73.3635V72.2415L643.812 71.1196L643.251 71.6806L642.69 72.2415V71.1196V68.8758L642.129 68.3148V67.7539L641.568 67.1929L641.007 65.5101H640.446V62.7053L641.007 61.5834L639.885 59.9005L639.324 57.6567L638.763 56.5347V54.8519V53.73L638.203 53.169V50.9252L622.497 54.8519H620.814L618.01 57.0957L616.888 58.7786L613.522 63.2662L612.961 64.3881V66.071L611.279 67.7539L607.352 71.6806L607.913 72.2415H609.596H610.718L611.279 72.8025L610.718 73.9244L609.596 75.6073H609.035L610.157 76.7292V77.8511L611.279 78.4121L610.718 78.973V80.0949L609.596 80.6559H608.474L606.23 83.4607L605.669 84.5826L603.426 85.7045L602.865 86.2655H601.182H599.499L598.377 86.8264L596.134 87.9483H595.012L593.89 86.8264L588.842 87.3874L587.72 87.9483H585.476L578.745 90.7531L579.306 91.8751V92.997V93.5579H581.55V94.6798L580.989 95.8018L582.111 96.9237V98.0456L580.989 99.7285L579.867 101.972L577.623 103.655L576.502 105.338L573.697 108.143ZM645.494 118.24L644.934 118.801L644.373 120.484L645.494 119.923L646.055 118.801L645.494 118.24ZM646.616 117.679V118.24L647.177 118.801L647.738 118.24L648.299 117.679L648.86 117.118L649.982 117.679L650.543 117.118L655.03 114.874H656.713V113.752H657.835L660.078 112.07L662.883 111.509L663.444 110.387L662.883 109.826L662.322 110.387L661.761 109.826L664.005 107.021L663.444 106.46L661.2 109.265L660.639 109.826L657.835 110.387H656.713L656.152 110.948H655.591V111.509L653.347 112.07L652.786 112.63L651.665 112.07V113.191L651.104 112.63L650.543 113.191V114.313L649.421 114.874L648.86 115.435H647.738L647.177 115.996L646.616 117.679ZM664.005 109.265V109.826H664.566L666.248 108.704L666.809 107.582H667.931L669.614 105.899L667.37 107.021H666.809H666.248L665.127 107.582L664.566 108.143L664.005 109.265Z" fill="#35D187" stroke="#24272C" stroke-width="2" stroke-linecap="round" stroke-linejoin="round"/>
<path opacity="0.3" fill-rule="evenodd" clip-rule="evenodd" d="M218.075 207.432C218.075 207.432 238.405 209.18 248.57 209.774C264.02 210.676 294.921 211.92 294.921 211.92V219.773H293.799L291.555 291.015L243.877 288.771V290.454L245.56 292.137L222.562 290.454L222.002 297.746L210.783 296.624L218.075 207.432Z" fill="#35D187" stroke="#24272C" stroke-width="2" stroke-linecap="round" stroke-linejoin="round"/>
<path opacity="0.3" fill-rule="evenodd" clip-rule="evenodd" d="M635.959 109.265L646.055 112.631L646.616 113.191L646.055 115.435V117.118L644.934 117.679L644.373 118.801L643.812 120.484L644.373 121.606L646.616 122.167H647.738L648.299 124.972L647.738 127.776V129.459V131.142L647.177 131.703L647.738 132.825L647.177 135.069L646.616 135.63H645.494L646.616 137.313H645.494V138.435L646.055 138.996H644.934L644.373 140.117L643.251 140.678L644.373 141.239L643.251 143.483V144.044L642.69 144.605V145.727L641.568 146.849V145.727V142.922H640.446H639.324L638.203 143.483L637.642 142.361H635.959L635.398 141.239H634.276L632.593 140.117V138.435L632.032 137.874L632.593 136.191V135.069H633.154L634.276 133.386L635.398 132.264V131.142L639.324 127.776V126.654L635.959 124.411H634.837L634.276 122.167L632.593 122.728L632.032 120.484L632.593 118.801L633.154 117.679L632.032 116.557V115.435L633.154 114.313L634.276 112.07V110.948L635.959 109.265Z" fill="#F62C5D" stroke="#24272C" stroke-width="2" stroke-linecap="round" stroke-linejoin="round"/>
<path opacity="0.3" fill-rule="evenodd" clip-rule="evenodd" d="M657.274 82.3388L669.053 79.534L670.736 78.9731L671.858 76.7293H672.418L672.979 75.6073L674.101 75.0464H675.223V73.3635L675.784 72.2416L673.54 71.1197V69.4368L671.297 68.3149V66.632L670.175 63.8272L662.322 40.267L661.761 41.3889L660.078 40.828L659.517 41.3889V42.5109L658.956 44.1937V45.8766L659.517 46.9985L658.396 49.2423L660.078 51.4862L659.517 52.0471V53.169L657.835 55.9738L657.274 56.5348H656.152L655.591 57.6567L656.152 59.3396V63.2663L655.591 63.8272V66.0711L655.03 67.193V68.8759L654.469 69.4368L655.03 72.8026L655.591 73.3635L655.03 75.6073L655.591 76.7293V78.4121L655.03 78.9731V80.656L657.274 82.3388Z" fill="#F62C5D" stroke="#24272C" stroke-width="2" stroke-linecap="round" stroke-linejoin="round"/>
<path opacity="0.3" fill-rule="evenodd" clip-rule="evenodd" d="M308.383 149.093V165.36C308.383 165.36 330.746 165.615 341.928 165.462C358.044 165.241 390.277 164.239 390.277 164.239L389.155 163.117V161.995L388.033 160.312L386.35 159.19L385.229 156.385L384.107 155.824V153.58L382.985 152.458V150.215V145.727L381.863 144.605L382.985 144.044L381.302 142.922V141.239L379.619 139.556L380.18 136.191L379.059 135.069V133.386L377.937 132.825L377.376 131.142L376.254 130.581V128.337L375.693 125.532H373.449L372.328 123.85V122.728H370.645L370.084 122.167L368.401 121.606H366.718L365.036 119.923L362.231 120.484H361.109H358.305L357.183 121.606H355.5L351.013 118.801C351.013 118.801 323.52 118.892 309.773 118.657C301.644 118.518 285.385 117.679 285.385 117.679L284.263 149.093H308.383Z" fill="#F62C5D" stroke="#24272C" stroke-width="2" stroke-linecap="round" stroke-linejoin="round"/>
<path opacity="0.3" fill-rule="evenodd" clip-rule="evenodd" d="M244.653 85.2164C257.856 86.1271 286.507 86.8265 286.507 86.8265L288.19 26.804C288.19 26.804 267.523 26.089 245.588 24.5287C232.47 23.5955 218.9 21.9997 209.025 21.0752C191.474 19.4321 156.374 15.0239 156.374 15.0239L154.13 29.0479L156.374 32.4136L157.496 35.2184L156.935 36.3403L157.496 38.0232H156.935L159.179 40.828L160.862 41.9499L164.788 46.9985L164.227 48.1204L166.471 50.3642H167.593V52.0471H170.958L168.714 58.7786L167.593 59.3396L168.153 63.8272L166.471 64.3882V67.7539L168.714 69.9977L173.202 66.632L174.324 68.8758L175.445 73.3635L177.689 77.8511L177.128 80.095L178.811 81.7778H180.494L181.615 86.2655L183.859 88.5093L184.981 86.8265L188.907 87.9484L190.029 86.2655L195.077 86.8265L195.638 87.3874H199.004L200.126 85.1436H201.248L204.052 89.0703L204.613 88.5093L205.174 81.2169C205.174 81.2169 230.745 84.2572 244.653 85.2164Z" fill="#F62C5D" stroke="#24272C" stroke-width="2" stroke-linecap="round" stroke-linejoin="round"/>
<path opacity="0.3" fill-rule="evenodd" clip-rule="evenodd" d="M404.28 154.117C397.556 154.499 384.107 154.702 384.107 154.702V155.824L385.229 156.385L386.35 159.19L388.033 160.312L389.155 161.995V163.117L390.277 164.239L393.081 165.921L394.203 165.36L395.325 165.921L395.886 167.604L394.764 168.165L394.203 169.287L393.081 170.97L394.203 172.092L395.886 173.214V174.336L397.008 176.019H398.691L399.813 176.58L400.934 210.798L401.495 218.651L458.148 214.725L459.831 216.408V217.53L457.026 221.456L456.465 222.017V222.578V223.139L464.318 222.017L464.879 220.334L466.001 219.773L464.879 218.09H466.001L465.44 216.408H466.562L466.001 214.164V213.042L467.123 214.164L467.684 213.603L468.244 211.92V211.359L469.927 212.481L470.488 210.798L471.049 209.115L470.488 207.993L471.049 205.749H469.927L468.805 204.628V205.749L467.123 205.188V204.067L465.44 201.823V201.262L466.001 199.579V199.018L464.879 197.896V195.652L462.635 194.53L461.513 192.847H460.953L458.709 191.725L457.587 191.165L453.1 187.799V185.555L454.782 181.067V179.384L455.343 178.263L453.661 176.58H451.417L449.734 178.263L448.612 177.141L447.491 174.336V172.653L446.369 170.97L443.003 169.287L442.442 168.165L439.077 165.36L438.516 164.239L437.955 163.117L437.394 161.995L436.272 158.629L436.833 156.385L437.394 155.263L433.468 151.898C433.468 151.898 414.009 153.564 404.28 154.117Z" fill="#F62C5D" stroke="#24272C" stroke-width="2" stroke-linecap="round" stroke-linejoin="round"/>
<path opacity="0.3" fill-rule="evenodd" clip-rule="evenodd" d="M485.633 235.48L486.194 236.602L487.316 237.163V275.869V285.405L490.681 307.844L490.12 309.527L487.877 308.405L487.316 308.966H485.633L483.389 307.844L481.146 309.527L479.463 310.648L477.78 309.527V310.648L477.219 312.331L474.415 312.892V311.77L473.293 308.966L471.61 307.283L471.049 305.6L471.61 301.673V300.551L446.369 302.795V300.551L445.808 298.307H446.93L447.49 297.185L446.93 294.942L448.051 293.259L449.173 289.332L452.539 286.527L451.978 284.283H452.539L453.661 280.918L451.417 279.235V277.552L450.295 275.869L451.417 275.308L450.856 274.747L450.295 273.625L451.417 271.942L449.734 270.82V269.138L450.856 268.016L449.734 266.333V263.528L448.612 262.406L449.734 261.284L448.612 260.162L450.295 257.918L449.734 255.114L451.978 253.992L452.539 253.431L451.417 252.309L453.661 250.065V248.943L455.343 247.821V242.773H457.026V241.09L458.709 239.968V238.285L485.633 235.48Z" fill="#F62C5D" stroke="#24272C" stroke-width="2" stroke-linecap="round" stroke-linejoin="round"/>
<path opacity="0.3" fill-rule="evenodd" clip-rule="evenodd" d="M435.711 107.021L374.571 110.387L374.01 82.8997L372.888 81.2169L370.645 80.6559L368.962 77.2902L370.645 76.1683L371.767 74.4854L372.327 72.8025L371.767 67.1929L370.084 64.9491L369.523 62.7053L368.962 58.7786V57.6567L368.401 54.8519V50.3642L367.84 46.9985L364.475 39.706V33.5355L365.036 31.8526L363.353 27.365L386.35 26.2431V20.6335L388.594 21.1944L389.716 22.8773L390.838 26.2431V28.4869L392.521 30.1698H395.886L396.447 30.7307L400.934 31.2917L401.495 32.9745L403.178 32.4136H405.422L405.983 31.2917L407.665 30.7307H411.031L412.153 31.2917H414.396V32.4136H413.274L413.835 32.9745H416.079L416.64 35.2184L417.762 35.7793L418.323 36.3403L418.884 34.0965H421.127L421.688 35.7793H422.81H424.493L425.054 37.4622H426.176L426.736 38.5841L429.541 37.4622L430.663 36.9012L434.028 34.6574L435.711 36.9012L437.955 36.3403L443.003 35.7793L444.686 37.4622L445.808 36.9012H448.051L444.125 39.706L437.955 41.9499L434.028 45.3156L429.541 50.3642L425.054 54.8519L422.249 56.5347L421.688 58.2176L421.127 59.3395H420.005L420.566 64.9491V68.3148L418.884 69.4368L416.079 71.1196L415.518 72.8025L414.396 74.4854V76.1683L416.079 76.7292L417.201 78.4121L416.64 80.6559L416.079 82.3388L416.64 83.4607L416.079 84.0217L416.64 85.1436L416.079 88.5093L418.884 90.7531H421.127L422.81 92.436L425.054 92.997L427.297 95.2408L428.98 97.4846L430.663 98.6065H432.907L435.15 100.85L435.711 102.533V107.021Z" fill="#F62C5D" stroke="#24272C" stroke-width="2" stroke-linecap="round" stroke-linejoin="round"/>
<path opacity="0.3" fill-rule="evenodd" clip-rule="evenodd" d="M491.242 128.337L515.362 124.972V126.093L531.067 123.289V121.606L533.311 118.801V114.874L534.433 112.63L536.116 112.07L535.555 109.826L537.237 108.704L536.676 107.582L537.798 107.021L539.481 108.704L540.603 101.972L538.359 99.1675L536.676 93.5579L534.994 89.0703L533.872 86.8264H531.628L529.384 88.5093H528.263L526.58 92.997H525.458L524.897 94.6798H523.214L520.41 94.1189L520.971 89.6312L523.214 88.5093L524.336 87.3874V85.1436L525.458 84.0216L526.58 82.8997L526.019 76.7292L524.897 74.4854L523.214 73.3635L523.775 71.6806L525.458 72.2415L524.336 70.5587H523.214V68.3148H520.971L519.288 67.7539L517.605 67.1929H514.24L513.679 65.5101L511.996 64.9491H510.313L506.948 63.8272L505.265 64.9491L503.582 66.632V68.3148L504.143 68.8758L506.387 69.4368L505.826 69.9977L502.46 71.1196L500.778 72.2415L501.339 75.0463V78.4121L500.217 80.6559L499.095 80.0949L498.534 78.973V76.1682V73.9244L496.851 77.2902L496.29 78.4121H495.169L493.486 79.534L494.047 81.2169L491.803 82.3388L492.925 84.0216V87.9484L491.803 90.1922L490.12 92.436L491.803 94.6798V96.3627L490.681 98.6065L491.803 101.411L493.486 103.655L494.047 104.216H495.169L494.608 105.899L495.729 108.704L496.29 110.387V117.679L494.608 121.606L493.486 124.411L492.925 127.215L491.242 128.337ZM475.536 78.4121L478.902 70.5587L480.585 67.7539L481.146 64.3882L482.267 66.071V67.7539L483.95 65.5101L486.194 64.3882L486.755 66.632L485.072 68.3149L485.633 68.8758L488.438 65.5101L489.559 63.8272L491.803 62.7053L493.486 63.2662L496.29 62.1443L497.412 60.4615L501.339 59.9005L504.704 61.0224L506.387 62.7053L507.509 59.3395H510.313L514.801 59.9005L516.483 59.3395H518.166H520.41V58.2176L519.288 57.0957L518.166 58.7786H515.922L514.24 57.6567L513.118 57.0957L511.996 56.5348V55.4128L512.557 53.73L511.996 51.4861L510.313 52.6081L508.07 53.73H506.948L506.387 53.169L504.704 53.73L501.9 53.169V49.2423L499.656 49.8033L496.29 52.0471L492.364 51.4861L488.998 52.6081L485.633 55.4128L484.511 56.5348L482.828 55.9738L481.707 57.0957L480.024 55.4128L477.219 57.0957L475.536 56.5348L472.171 52.0471L468.805 51.4861L466.562 52.0471L463.196 54.2909L462.635 50.3642L464.879 47.5594L467.684 44.7546L467.123 44.1937L470.488 43.0718H468.805L465.44 43.6327L462.074 45.8766L460.953 47.5594L459.27 48.1204L458.148 49.8033L457.026 51.4861H455.343L453.1 53.73L448.051 54.8519L446.93 56.5348L445.247 57.6567L441.32 59.3395L443.564 59.9005L445.247 62.1443L458.709 64.9491L460.953 66.071L463.757 65.5101L467.123 66.071L468.805 66.632V68.3149H470.488L472.171 69.4368L473.293 72.2416L472.171 74.4854H472.732L474.415 73.9244H474.975L473.854 77.2902L475.536 78.4121Z" fill="#F62C5D" stroke="#24272C" stroke-width="2" stroke-linecap="round" stroke-linejoin="round"/>
<path opacity="0.3" fill-rule="evenodd" clip-rule="evenodd" d="M647.177 95.2408H647.738L655.03 93.558L655.591 94.1189L667.37 90.7532V91.3141L671.858 89.6313L672.418 91.3141H672.979H673.54V92.997L675.223 93.558L675.784 91.8751H676.345V92.997L675.784 94.1189L676.345 96.3628L676.906 96.9237L677.467 95.8018L678.028 95.2408L678.589 95.8018L679.149 94.6799V93.558H679.71L680.832 92.4361V91.3141H681.954L682.515 92.4361V94.1189H683.637L684.198 92.997L684.759 92.4361L686.441 91.8751L689.807 90.1922V88.5094L689.246 87.9484L688.685 86.8265L687.563 85.1436H687.002L687.563 86.2655C687.563 86.2655 688.859 87.4896 689.226 88.1016C689.419 88.4245 689.246 89.0703 689.246 89.0703L687.563 89.6313L687.002 90.1922L686.441 90.7532H685.32H683.076L682.515 89.6313V87.9484L681.393 88.5094L679.71 87.9484L680.271 86.2655L678.028 84.0217L676.906 84.5827L676.345 85.1436L675.223 84.5827L674.662 84.0217V82.8998L675.223 82.3388V81.7779L676.345 81.2169L675.784 80.656V79.534L678.028 78.9731L678.589 77.8512L677.467 78.4121L676.345 77.8512L675.784 77.2902V76.1683H674.662L675.223 75.0464H674.101L672.979 75.6073C672.979 75.6073 672.605 76.3553 672.418 76.7293H671.858L670.736 78.9731L669.053 79.534L657.274 82.3388L647.738 84.0217L647.177 95.2408ZM681.954 96.9237V98.0456L683.076 96.9237L685.32 96.3628L683.637 95.2408L683.076 96.3628L681.954 96.9237ZM689.246 96.3628L689.807 96.9237H690.929L691.49 96.3628L690.929 95.2408L690.368 96.3628H689.246ZM675.223 94.6799L674.662 95.8018L675.223 97.4847L675.784 96.9237L675.223 94.6799Z" fill="#F62C5D" stroke="#24272C" stroke-width="2" stroke-linecap="round" stroke-linejoin="round"/>
<path opacity="0.3" fill-rule="evenodd" clip-rule="evenodd" d="M583.794 146.288L585.476 154.141L587.72 151.898L588.842 150.215L589.403 149.093H591.085L592.768 147.41V145.727L593.89 147.41H595.573L596.695 146.849L597.256 145.166H598.938L599.499 144.044L600.06 143.483L602.304 144.605L604.547 144.044L603.987 145.166H604.547L605.108 146.288L606.23 146.849V147.971H608.474L610.157 148.532L609.596 150.215L610.718 151.337H612.961L613.522 152.458H615.205L615.766 151.337L617.449 153.019L616.888 154.141V155.263L616.327 156.385V157.507L615.205 159.19V160.873H616.327V159.19L617.449 159.751L618.009 159.19L619.131 160.873L620.253 161.434L619.692 159.751L620.814 160.873L621.375 161.995L623.058 161.434L624.18 161.995L624.741 162.556L625.862 161.995L626.984 163.678L627.545 162.556L625.862 160.873H625.301L623.619 159.751L622.497 159.19L621.375 157.507V155.263L622.497 157.507L623.619 158.629L625.862 159.751V159.19L623.619 156.946V155.263L622.497 154.141V153.019V151.337L621.375 150.776L622.497 150.215L620.814 149.654L622.497 147.971L620.253 146.288L621.375 145.727L621.936 146.288V145.166L623.058 144.044L622.497 143.483L623.619 142.922L624.18 144.044V141.8L624.741 142.922L625.862 142.361L625.301 141.239L625.862 140.117L626.984 138.995L627.545 140.678L628.667 139.556V140.678L627.545 141.8L629.228 142.361L628.667 142.922L626.423 143.483L625.301 145.166V147.41L626.423 146.849H626.984L626.423 149.093L625.862 149.654H624.741V150.776L626.984 149.654L627.545 150.776L626.984 151.898H628.106L627.545 153.019L626.984 153.58L628.667 154.702L629.789 154.141L630.35 155.263L626.984 155.824L627.545 156.946L626.984 158.068L629.228 158.629L630.35 160.312V158.629H631.472L632.593 156.946V158.629V159.751H633.154L632.593 160.873H633.715L634.276 161.995L633.715 163.678L636.52 163.117L639.324 161.995V160.312L640.446 159.751L639.885 158.068L641.568 157.507V156.385L640.446 154.702L633.715 156.385L628.667 137.313L583.794 146.288Z" fill="#F62C5D" stroke="#24272C" stroke-width="2" stroke-linecap="round" stroke-linejoin="round"/>
<path opacity="0.3" fill-rule="evenodd" clip-rule="evenodd" d="M673.54 3.24383L668.492 16.1458L669.053 20.0725L667.931 21.7554V22.8773L667.37 24.5602L668.492 25.1212L667.931 25.6821V27.926H669.053L667.931 30.1698V31.8527L666.248 34.0965L665.688 35.7794L666.809 36.9013L666.248 38.0232L665.127 37.4622V38.0232V40.267L663.444 38.5841L662.322 40.267L671.297 66.632V68.3149L673.54 69.4368V71.1197L675.784 72.2416L676.345 69.4368L675.784 67.193L677.467 66.071L678.028 65.5101L677.467 63.2663L679.15 62.7053L678.028 60.4615L680.271 57.6567H681.393V59.3396L681.954 58.2176L683.076 59.3396L683.637 58.2176L680.832 54.8519L683.637 57.0957V54.2909L685.32 57.0957L686.441 53.169L688.124 54.2909L689.246 53.169L689.807 50.9252L689.246 46.9985L689.807 45.8766L690.929 44.1937L691.49 45.3156L692.612 46.9985H694.294L694.855 44.7547L696.538 45.3156L697.66 46.4375L698.782 43.0718L697.66 41.9499L699.904 43.0718L701.586 41.9499L703.269 38.5841H704.391L706.635 37.4622L709.439 35.2184L710 32.9746L708.317 33.5355V31.2917L706.074 29.6088L704.952 30.1698L702.708 29.0479L702.147 27.926L701.586 26.2431L702.147 24.5602L701.025 23.9993H698.221L697.099 23.4383L696.538 20.0725L690.929 3.80479L688.124 2.68287L686.441 1L684.198 1.56096L683.076 3.24383L680.832 4.36574L678.589 5.48766L676.906 4.9267L676.345 2.68287L673.54 3.24383Z" fill="#F62C5D" stroke="#24272C" stroke-width="2" stroke-linecap="round" stroke-linejoin="round"/>
<path opacity="0.3" fill-rule="evenodd" clip-rule="evenodd" d="M412.153 273.064L449.734 270.82L451.417 271.942L450.295 273.625L450.856 274.747L451.417 275.308L450.295 275.869L451.417 277.552V279.235L453.661 280.918L452.539 284.283H451.978L452.539 286.527L449.173 289.332L448.051 293.259L446.93 294.942L447.491 297.185L446.93 298.307H445.808L446.369 300.551V302.795L471.61 300.551V301.673L471.049 305.6L471.61 307.283L473.293 308.966L474.415 312.331V312.892H472.732L469.927 312.331L468.244 310.648H466.001L463.196 314.014L463.757 315.697L466.001 316.258L468.244 316.819L471.61 314.575H473.854L473.293 315.697L471.61 316.258L472.171 317.38H473.293L474.415 318.502L475.536 317.38L476.658 315.136L477.78 317.38L478.341 318.502H476.658L475.536 320.746L473.854 320.185L474.415 321.868L473.293 322.429L477.219 325.233L481.707 326.355L483.95 329.16L482.267 330.843L480.585 329.16L480.024 329.721L478.341 328.038L476.097 327.477L475.536 326.355L473.854 326.916L472.171 324.672L468.805 323.55H467.123L467.684 324.672L469.366 325.794V327.477V329.16L468.244 330.843L467.123 329.721V328.599L464.879 327.477L463.196 328.038L462.074 328.599L461.513 330.843L457.587 330.282H455.904L453.1 329.721V328.599L455.343 329.16L454.782 328.038L453.1 326.355L453.661 324.672L453.1 324.111L451.978 325.794L449.734 325.233L449.173 324.672L448.612 323.55L448.051 324.111L447.491 322.429L444.686 322.989V321.307H443.003L440.76 322.429L439.638 322.989L441.32 324.672L439.077 326.355H433.468L428.419 323.55L425.054 322.989L422.81 323.55L418.323 324.672H417.201L416.64 323.55L418.323 322.989V321.307V320.185V319.063L418.884 316.819L417.762 314.575L418.323 313.453V311.77L419.445 309.526L420.006 307.844V304.478L420.566 303.917L420.006 303.356V301.673L418.323 299.99V298.307L417.201 297.185V296.624L416.079 295.503V293.259L414.396 291.015L412.714 289.332L412.153 273.064Z" fill="#F62C5D" stroke="#24272C" stroke-width="2" stroke-linecap="round" stroke-linejoin="round"/>
<path opacity="0.3" fill-rule="evenodd" clip-rule="evenodd" d="M467.684 213.603L485.072 211.92V210.798L484.511 209.115H487.877L539.481 204.067L540.603 202.945L546.773 199.579L547.334 197.896L550.139 196.774V195.652L551.26 194.53V192.847L555.187 190.604L559.113 185.555V184.994H557.43L554.626 183.311L552.382 180.506L551.821 179.384L549.578 177.141L550.139 174.897L549.578 173.214L548.456 171.531L546.212 170.97L545.09 168.165L542.847 169.848L542.286 170.97H540.603L540.042 171.531L538.92 170.409H536.676L535.555 172.092L534.433 171.531L532.75 169.848L529.945 170.409L528.263 169.848L527.702 168.726L526.58 166.482H525.458L524.336 165.36L523.214 166.482L521.532 165.36L519.849 167.043L520.41 168.165V169.287L521.532 169.848V171.531H519.849L517.044 173.214L515.923 172.653L513.679 173.214L514.24 176.019L513.118 177.702H511.996V179.945L510.874 180.506H509.752L509.192 182.75V184.994L507.509 186.116L505.826 184.994L504.143 184.433L503.582 183.311L502.46 184.994L501.339 187.238L500.778 188.921L499.656 188.36L497.973 187.238L496.29 187.799L495.729 188.36L494.608 190.604L493.486 189.482L490.681 188.36L488.998 189.482L488.438 188.36V190.043L487.877 190.604L487.316 189.482L486.194 190.043L484.511 189.482V191.725H482.828L482.267 192.847L481.707 194.53L482.828 195.652V196.774L478.341 198.457L477.78 200.14L478.902 201.823L479.463 202.945L478.341 203.506H477.78L473.854 201.823H472.171L471.049 202.945L469.927 204.627L470.488 205.188L469.927 205.749H471.049L470.488 207.993L471.049 209.115L469.927 212.481L468.245 211.359V211.92L467.684 213.603Z" fill="#F62C5D" stroke="#24272C" stroke-width="2" stroke-linecap="round" stroke-linejoin="round"/>
<path opacity="0.3" fill-rule="evenodd" clip-rule="evenodd" d="M351.745 165.327C337.291 165.525 308.383 165.36 308.383 165.36L307.261 211.92C307.261 211.92 337.614 212.678 352.79 212.497C368.838 212.304 400.934 210.798 400.934 210.798L399.813 176.58L398.691 176.019H397.008L395.886 174.336V173.214L394.203 172.092L393.082 170.97L394.203 169.287L394.764 168.165L395.886 167.604L395.325 165.921L394.203 165.36L393.082 165.921L390.277 164.239C390.277 164.239 364.589 165.151 351.745 165.327Z" fill="#F62C5D" stroke="#24272C" stroke-width="2" stroke-linecap="round" stroke-linejoin="round"/>
<path opacity="0.3" fill-rule="evenodd" clip-rule="evenodd" d="M384.107 154.702C384.107 154.702 400.182 154.35 408.219 153.893C416.635 153.415 433.468 151.897 433.468 151.897L437.394 155.263L437.955 154.702L437.394 152.458L440.759 150.215V147.971L443.003 145.727L442.442 144.044L440.199 141.8L441.32 138.434L445.808 137.313L449.173 135.069V132.825L450.856 131.142L450.295 126.654L446.93 125.532V123.85L444.125 121.606L443.003 118.801H439.638L437.955 115.435L437.394 111.509L438.516 109.826L436.833 108.704L436.272 107.021L372.888 110.387V111.509L374.01 112.63L373.449 114.313L374.571 115.435L374.01 119.923L372.888 121.606L374.571 125.532H375.693L376.254 128.337V130.581L377.376 131.142L377.937 132.825L379.059 133.386V135.069L380.18 136.191L379.619 139.556L381.302 141.239V142.922L382.985 144.044L381.863 144.605L382.985 145.727V152.458L384.107 153.58V154.702Z" fill="#F62C5D" stroke="#24272C" stroke-width="2" stroke-linecap="round" stroke-linejoin="round"/>
<path opacity="0.3" fill-rule="evenodd" clip-rule="evenodd" d="M482.828 130.02L484.511 131.142H486.194L491.242 128.337L515.361 124.972V126.093L520.41 166.482L519.849 167.043L520.41 168.165V169.287L521.532 169.848V171.531H519.849L517.044 173.214L515.922 172.653L513.679 173.214L514.24 176.019L513.118 177.702H511.996V179.945L510.874 180.506H509.752L509.191 182.75V184.994L507.509 186.116L505.826 184.994L504.143 184.433L503.582 183.311L502.46 184.994L501.899 186.116L501.339 187.238L500.778 188.921L499.656 188.36L497.973 187.238L496.29 187.799L495.729 188.36L494.608 190.604L493.486 189.482L490.681 188.36L488.998 189.482L488.437 188.36V190.043L487.877 190.604L487.316 189.482L486.194 190.043L484.511 189.482V190.604V191.725H482.828L482.267 190.043L482.828 189.482V187.238L483.95 186.116L482.828 184.994L483.389 183.872L484.511 183.311L485.633 181.067L486.755 179.945V178.262L487.877 176.58V175.458L487.316 173.775V172.653L486.194 170.97L485.072 169.848L486.194 169.287L485.633 167.604L486.755 166.482L482.828 130.02Z" fill="#F62C5D" stroke="#24272C" stroke-width="2" stroke-linecap="round" stroke-linejoin="round"/>
<path opacity="0.3" fill-rule="evenodd" clip-rule="evenodd" d="M477.78 118.24L444.125 121.606L446.93 123.85V125.533L450.295 126.654L450.856 131.142L449.173 132.825V135.069L445.808 137.313L441.32 138.435L440.199 141.8L442.442 144.044L443.003 145.727L440.76 147.971V150.215L437.394 152.459L437.955 154.702L437.394 155.263L436.833 156.385L436.272 158.629L437.394 161.995L439.077 165.361L442.442 168.165L443.003 169.287L446.369 170.97L447.491 172.653V174.336L448.612 177.141L449.734 178.263L451.417 176.58H453.661L455.343 178.263L454.782 178.824V181.067L453.1 185.555V187.799L457.587 191.165L460.953 192.847H461.514L462.635 194.53L464.879 195.652V197.896L466.001 199.018V199.579L465.44 201.262V201.823L467.123 204.067V205.188L468.805 205.749V204.628L469.927 205.749L470.488 205.188L469.927 204.628L471.049 202.945L472.171 201.823H473.854L477.78 203.506H478.341L479.463 202.945L478.902 201.823L477.78 200.14L478.341 198.457L480.024 197.896L482.828 196.774V195.652L481.707 194.53L482.267 192.847L482.828 191.726L482.267 190.043L482.828 189.482V187.238L483.95 186.116L482.828 184.994L483.389 183.872L484.511 183.311L485.633 181.067L486.755 179.945V178.263L487.877 176.58V175.458L487.316 173.775V172.653L486.194 170.97L485.072 169.848L486.194 169.287L485.633 167.604L486.755 166.482L482.828 130.02L481.146 128.337L480.585 126.654V124.972L478.902 123.85L478.341 122.167L477.78 121.606V118.24Z" fill="#F62C5D" stroke="#24272C" stroke-width="2" stroke-linecap="round" stroke-linejoin="round"/>
<path opacity="0.3" fill-rule="evenodd" clip-rule="evenodd" d="M200.687 127.776L204.052 89.0703L201.248 85.1436H200.126L199.004 87.3874H195.638L195.078 86.8265L190.029 86.2655L188.907 87.9484L184.981 86.8265L183.859 88.5093L181.616 86.2655L180.494 81.7779H178.811L177.128 80.095L177.689 77.8512L175.445 73.3635L174.324 68.8758L173.202 66.632L168.714 69.9978L166.471 67.7539V64.3882L168.154 63.8272L167.593 59.3396L168.714 58.7786L170.958 52.0471H167.593V50.3642H166.471L164.227 48.1204L164.788 46.9985L160.862 41.9499L159.179 40.828L156.935 38.0232H157.496L156.935 36.3403L157.496 35.2184L156.374 32.4136L154.131 29.0479L156.374 15.0239L145.717 13.3411L139.547 52.0471L140.669 54.2909V55.4129L140.108 55.9738L140.669 59.3396L144.034 62.1444L144.595 64.9491L141.79 68.3149L141.229 69.4368L138.986 72.8025L138.425 74.4854L136.181 76.7292L133.377 80.095L132.816 83.4607L135.059 84.0217L136.181 85.1436L135.059 86.2655V87.9484L133.938 90.1922L129.45 118.24L164.788 123.289L200.687 127.776Z" fill="#F62C5D" stroke="#24272C" stroke-width="2" stroke-linecap="round" stroke-linejoin="round"/>
<path opacity="0.3" fill-rule="evenodd" clip-rule="evenodd" d="M358.305 474.448L359.426 473.887L359.987 472.204L362.792 469.96L365.036 468.838L367.279 468.277L370.084 467.716L372.328 466.034L373.449 463.79L370.645 462.668L370.084 460.424H368.401V458.18L366.157 455.936L359.987 453.692L359.426 454.253L356.622 452.571L355.5 451.449L353.817 452.571L354.939 454.814L355.5 455.936L353.256 458.741L351.574 460.985L352.695 463.229L353.817 466.034L354.378 468.277L353.817 471.643L354.939 473.326H357.183L358.305 474.448ZM282.02 421.157L280.337 422.84L279.215 423.962V425.084L279.776 425.645L280.898 423.962L282.581 423.401V421.718L282.02 421.157ZM290.994 417.23L288.19 418.913L287.068 420.596L287.629 422.279H289.312L290.994 423.962H292.116L294.36 423.401L294.921 421.157L296.043 419.474L294.36 417.791L292.116 418.352L290.994 417.23ZM318.479 426.767L320.723 429.571V431.815L322.967 430.693L323.528 432.376L324.089 434.059H322.406L319.601 433.498L317.919 432.376V433.498L316.797 434.059L315.114 432.376L313.992 430.693L313.431 428.449L315.675 429.01L318.479 426.767ZM330.82 434.62L331.941 435.181L333.624 435.742H335.868V435.181L336.99 436.303H340.916L338.672 437.986H336.429L334.746 436.864L331.381 437.425H330.259L329.698 436.303L330.82 435.742V434.62ZM334.746 440.23H336.429L338.672 441.912L336.99 443.595L335.307 443.034V441.351L334.185 440.791L334.746 440.23ZM342.599 445.839L340.355 446.4V446.961L341.477 447.522L343.16 446.961L342.599 445.839ZM343.721 442.473L344.843 443.595V445.278L345.404 446.4L346.525 445.839H348.208L349.33 444.717L350.452 445.278L352.135 443.595V442.473L350.452 441.351L347.647 439.669L345.404 440.791L344.282 440.23L341.477 437.425L340.916 439.108L340.355 440.23L342.038 442.473H343.721Z" fill="#F62C5D" stroke="#24272C" stroke-width="2" stroke-linecap="round" stroke-linejoin="round"/>
<path opacity="0.3" fill-rule="evenodd" clip-rule="evenodd" d="M551.26 227.066L518.727 231.553L528.824 262.967L531.067 268.016L532.75 270.26V272.503L534.433 273.064L532.75 274.747V277.552L531.628 278.674V281.479L533.872 284.283L533.311 289.893L534.994 291.576L535.555 293.259L536.676 294.942L537.237 297.185L570.331 294.942L573.697 294.381V295.503L574.819 297.185H576.502L577.062 293.82L575.941 293.259V291.015L577.062 289.893L579.867 290.454H583.233L582.111 288.771L583.233 286.527H582.111L582.672 285.405L582.111 284.283V283.722V282.04H583.233V283.722L584.354 281.479L581.55 280.918V279.796L584.354 280.357L583.794 279.235L585.476 277.552L583.794 278.113L582.672 276.991L584.915 276.43L583.794 275.308L584.354 274.186L583.233 273.625H585.476L586.037 272.503L584.354 271.942L584.915 270.82L587.159 271.381V270.26L588.281 269.138L586.598 268.577L585.476 268.016L584.915 268.577L583.794 266.894V264.65L582.111 262.406L581.55 261.284H579.867L579.306 260.162L578.745 257.918L577.623 256.236V255.114L574.819 253.431H573.136V252.309L572.014 251.748V250.626L570.331 250.065V248.943L568.649 247.26H566.966L565.283 244.455L562.479 243.334L561.918 242.212H560.796L560.235 240.529L558.552 239.407L557.991 238.846L557.43 237.163L555.748 236.041V234.358L553.504 234.919L551.821 233.797L551.26 233.236L549.578 232.675L548.456 232.114L549.578 229.871L550.138 228.749L551.26 227.066Z" fill="#F62C5D" stroke="#24272C" stroke-width="2" stroke-linecap="round" stroke-linejoin="round"/>
<path opacity="0.3" fill-rule="evenodd" clip-rule="evenodd" d="M535.555 293.259L500.778 297.185L500.217 299.99L501.9 301.673L503.582 302.234V304.478L504.143 305.6H505.265L504.143 307.844L504.704 308.405L507.509 305.039L506.948 303.356L508.631 304.478L509.191 303.356H510.313L509.752 304.478L511.435 305.039L510.313 305.6L515.362 305.039L516.483 303.356H517.605L520.41 302.795L522.093 304.478L519.288 305.039L523.775 306.161L527.141 307.844L525.458 306.161L527.141 305.039L527.702 306.161L529.385 304.478L529.945 305.6L528.263 307.283L529.385 307.844H531.067L532.189 308.966L531.067 309.527L529.385 308.966L532.189 310.648L533.872 312.331V314.014H535.555L537.798 312.892L540.042 311.209L540.603 312.331L544.529 308.966H546.773L544.529 307.844L546.773 306.161L548.456 305.6H551.26L553.504 306.722H555.187L557.43 308.966L557.991 310.087L560.235 310.648L560.796 312.892L561.918 314.014L563.601 314.575L564.722 316.258L566.405 317.38H569.771L570.892 320.185L572.575 321.307V323.55L573.136 324.672V330.282L572.014 333.087L573.136 334.209L572.575 338.135L574.819 339.818L575.38 337.574L573.697 336.452L574.258 334.77L576.502 335.891V337.574L577.623 335.891L578.184 337.013L578.745 338.135L576.502 341.501L575.941 343.745L577.623 345.428L578.184 347.111L579.867 349.354L580.989 351.037L582.672 352.72H584.354L582.111 350.476H583.794L586.037 349.915L586.598 350.476L585.476 351.037L586.037 354.964L586.598 356.647L587.72 356.086V354.964L589.964 353.281V354.403L588.842 355.525L587.72 357.208L588.842 357.769L589.403 357.208L590.525 359.452L591.085 362.256L592.768 364.5L597.256 365.622L598.938 366.744V367.866L599.499 368.427L601.182 370.11L602.304 372.354L605.108 372.915L606.23 374.037L605.108 375.159L602.304 373.476V375.159L603.426 376.28L606.23 375.719L606.791 374.598L609.035 375.159L610.718 372.915H612.4L614.083 370.11L612.961 368.988L614.083 365.061L614.644 361.696V358.891V355.525L614.083 354.964V350.476L613.522 347.111L612.4 345.989V344.867L610.157 342.623H609.035L608.474 341.501L610.157 342.062L609.035 339.818L608.474 339.257L606.23 335.331L603.987 331.965L601.182 327.477L598.377 323.55L597.256 319.624L598.377 319.063L598.938 321.307H600.621L595.573 315.136L590.525 308.405L587.159 300.551L586.598 299.429L585.476 297.185L584.915 294.381L583.233 293.259V291.576H584.354V290.454H579.867L577.063 289.893L575.941 291.015V293.259L577.063 293.82L576.502 297.185H574.819L573.697 295.503V294.381L570.332 294.942L537.237 297.185L536.676 294.942L535.555 293.259Z" fill="#F62C5D" stroke="#24272C" stroke-width="2" stroke-linecap="round" stroke-linejoin="round"/>
<path opacity="0.3" fill-rule="evenodd" clip-rule="evenodd" d="M633.715 156.385L640.446 154.702L641.568 154.141V153.58L641.007 152.458L639.324 153.019L639.885 151.897V150.776L641.007 150.215L639.885 149.654L638.763 149.093L637.081 147.971V146.849L634.837 145.727V143.483L631.472 140.678V138.995L630.911 138.435V137.313L632.032 136.191L632.593 134.508H630.35L629.228 135.63L628.667 137.313L633.715 156.385Z" fill="#F62C5D" stroke="#24272C" stroke-width="2" stroke-linecap="round" stroke-linejoin="round"/>
<path opacity="0.3" fill-rule="evenodd" clip-rule="evenodd" d="M269.119 148.532C255.483 147.904 223.123 145.166 223.123 145.166L218.075 207.432C218.075 207.432 239.404 209.264 252.032 209.899C269.133 210.76 307.261 211.92 307.261 211.92L308.383 149.093C308.383 149.093 283.903 149.213 269.119 148.532Z" fill="#F62C5D" stroke="#24272C" stroke-width="2" stroke-linecap="round" stroke-linejoin="round"/>
<path opacity="0.3" fill-rule="evenodd" clip-rule="evenodd" d="M647.738 95.2408L649.421 106.46L650.543 107.582L648.299 110.387L649.421 110.948H651.104L653.908 107.582L655.591 107.021L656.713 105.338H657.835L660.639 104.216L663.444 103.655L662.883 102.533L664.566 103.094L665.687 102.533L667.37 101.972L668.492 101.411H669.614V99.1675L667.37 90.7532L655.591 94.1189L655.03 93.558L647.738 95.2408Z" fill="#F62C5D" stroke="#24272C" stroke-width="2" stroke-linecap="round" stroke-linejoin="round"/>
<path opacity="0.3" fill-rule="evenodd" clip-rule="evenodd" d="M94.1123 112.63L44.7515 102.533V104.216L43.6297 105.899L44.7515 107.021V112.07L42.5079 116.557V117.679L41.9469 119.923L42.5079 120.484L40.8251 121.045L40.2642 122.167L39.1423 122.728L37.4596 125.533V128.337L39.7033 131.703L40.2642 132.825L41.9469 136.191V141.239L40.2642 144.044L40.8251 145.727L41.386 149.654L40.2642 150.215L44.1906 156.946L46.4343 159.19V161.434L47.5561 163.117L48.6779 165.36V166.482L46.9952 164.239V165.36L49.2389 168.726H49.7998L51.4825 170.409L52.6044 165.921L54.2871 165.36L56.5308 167.604L57.6526 167.043L58.7745 166.482L59.3354 167.604L60.4572 168.165H62.14L63.8227 168.726L65.5055 170.409H64.9446L63.2618 169.287L62.14 169.848L60.4572 169.287L57.6526 168.165L56.5308 168.726L55.409 167.604L53.7262 168.726V169.287L54.2871 170.409V171.531L55.409 172.653V174.897V176.58L56.5308 177.141L55.9699 177.702L54.2871 176.58L52.6044 174.336V173.214V171.531H51.4825L50.9216 172.653L51.4825 173.775L50.9216 175.458L51.4825 177.702L50.9216 179.945L52.6044 183.311L54.2871 184.994L56.5308 185.555L57.6526 187.799L57.0917 190.043L55.409 191.165H54.848V195.652L55.409 196.774L57.0917 198.457L57.6526 200.701L58.7745 201.262V203.506L59.8963 205.188V206.871L62.14 207.993L62.7009 210.237L64.9446 211.359V213.042L63.8227 214.164L64.3836 215.286L66.6273 216.408V218.09L66.0664 220.334V222.578V224.261L64.9446 225.383L66.6273 225.944L67.1882 227.627H71.1147L71.6756 228.749H73.3583L74.4802 229.871L76.1629 230.432L77.8457 229.871L81.2112 232.675L82.333 235.48L86.2594 237.724L87.3813 238.285H90.7468L92.4295 240.529L91.8686 243.334L92.9905 243.895L94.1123 243.334L95.795 243.895L98.0387 246.699L101.404 250.626L103.087 252.309L104.209 255.675L104.77 258.479L104.209 260.723L104.77 261.845L105.892 262.967V264.65L137.303 266.894L137.864 266.333L139.547 266.894H140.108L140.668 265.772L141.229 264.65V262.406L138.986 261.845L138.425 260.723L138.986 259.04V255.675H140.668L141.79 253.431L142.351 251.187L142.912 248.943V247.821L144.034 246.699L144.595 245.577L146.839 244.455L148.521 242.773L145.717 239.968L145.156 236.602L144.034 234.358L143.473 233.236V231.553L85.6985 158.068L94.1123 112.63Z" fill="#F62C5D" stroke="#24272C" stroke-width="2" stroke-linecap="round" stroke-linejoin="round"/>
<path opacity="0.3" fill-rule="evenodd" clip-rule="evenodd" d="M405.422 263.528L404.3 235.48L401.495 219.212V218.651L458.148 214.725L459.831 216.408V217.53L457.026 221.456L456.465 222.017V223.139L464.318 222.017L465.44 222.578L466.001 223.139H464.318V224.261L464.879 224.822L462.074 226.505L462.635 228.749V229.871H461.513L460.953 232.114L460.392 233.797L461.513 236.041H459.831L458.709 238.285V239.968L457.026 241.09V242.773H455.343V247.821L453.661 248.943V250.065L451.417 252.309L452.539 253.431L451.978 253.992L449.734 255.114L450.295 257.918L448.612 260.162L449.734 261.284L448.612 262.406L449.734 263.528V266.333L450.856 268.016L449.734 269.138V270.82L411.592 273.064V264.65L411.031 264.089H408.226L407.665 264.65L406.543 264.089L405.422 263.528Z" fill="#F62C5D" stroke="#24272C" stroke-width="2" stroke-linecap="round" stroke-linejoin="round"/>
<path opacity="0.3" fill-rule="evenodd" clip-rule="evenodd" d="M178.275 203.729C191.541 205.15 218.075 207.432 218.075 207.432L210.783 296.624L183.859 294.381L135.62 270.259L136.181 268.577L137.303 266.894L137.864 266.333L139.547 266.894H140.108L141.229 264.65V262.406L138.986 261.845L138.425 260.723L138.986 259.04V255.675H140.668L141.79 253.431L142.912 248.943V247.821L144.034 246.699L144.595 245.577L146.839 244.455L148.521 242.773L145.717 239.968L145.156 236.602L143.473 233.236V229.31L144.595 228.749V226.505L144.034 223.7L144.595 222.017L144.034 219.212L144.595 218.09L144.034 216.408L144.595 214.164L146.839 213.042L148.521 214.164L149.643 213.603L150.204 215.847H151.887L153.57 212.481L155.252 200.701C155.252 200.701 170.601 202.906 178.275 203.729Z" fill="#F62C5D" stroke="#24272C" stroke-width="2" stroke-linecap="round" stroke-linejoin="round"/>
<path opacity="0.3" fill-rule="evenodd" clip-rule="evenodd" d="M196.199 390.304L182.737 320.746L181.616 321.307L179.372 320.185L177.689 319.063H175.445L173.202 319.624L172.08 320.185H169.836L168.714 319.624H165.91L163.666 319.063L161.983 318.502L160.301 317.38L157.496 318.502L156.935 317.941L154.691 319.063L153.009 318.502V317.38L151.326 316.819L152.448 315.697L149.643 315.136L147.4 315.697H145.717L146.278 314.575L145.156 313.453L143.473 316.258L142.351 314.575L144.034 313.453L141.229 311.77L139.547 313.453L137.303 315.136H133.938L132.255 316.258L130.572 317.941L128.328 319.063L127.206 318.502L124.402 321.868L122.719 324.111L122.158 325.794L120.475 327.477H117.11L114.305 326.916L113.744 329.721L112.623 330.843L114.866 333.648L118.232 337.013L119.354 339.257L118.793 340.94L122.158 342.623H124.963L125.524 343.184L124.402 344.306V345.989H125.524H127.206L128.889 346.55V348.233H127.206L126.085 346.55L123.841 347.111L125.524 347.672L126.085 349.354L124.963 348.794L123.841 350.476L121.597 349.915L120.475 349.354L117.671 348.794L117.11 347.672L118.793 345.428L116.549 344.867L114.866 345.989H113.184L112.062 346.55L112.623 347.672L110.379 347.111L107.574 348.794L104.209 349.354L105.331 351.598L109.257 353.842L107.574 354.964L108.135 356.647L107.574 358.33L109.818 360.013L112.623 360.574L114.305 360.013L117.11 360.574L117.671 361.696L119.354 362.256L120.475 360.574L123.28 359.452L124.963 358.891L126.085 360.574L124.963 362.256H123.28L124.402 363.939L124.963 367.305L123.841 369.549L120.475 370.11L119.354 368.427L118.793 370.11L116.549 371.793H115.427L113.744 370.11L112.062 371.232L110.379 372.915V375.158L108.696 375.719L106.453 378.524V379.646L104.77 380.207L105.892 381.329L104.77 381.89L105.331 383.573L105.892 385.817L107.013 385.256L108.135 386.939L113.184 388.621V389.743L112.062 390.304L110.94 389.182H109.818L108.135 388.061L105.892 389.743L108.135 392.548L109.818 395.353L111.501 396.475L114.305 395.353L115.988 394.231L116.549 391.987V394.231L117.671 398.158L118.232 399.841L117.11 400.963L117.671 403.206L116.549 406.011L118.232 406.572L123.28 403.206L123.841 404.889L125.524 405.45L128.328 408.816L129.45 408.255L128.889 405.45L130.572 403.767V406.572L131.133 407.694L136.181 405.45L137.303 404.328L135.059 407.694L133.377 410.499L135.059 411.06L133.377 411.621V414.986V416.669L132.255 416.108L129.45 418.352L128.889 419.474L128.328 421.718L127.206 421.157L123.841 422.84L120.475 425.084L119.915 426.767L121.036 428.449L119.354 427.888L117.11 426.206L113.744 427.328L110.94 430.132L108.696 431.254L107.574 432.376L105.331 431.815L103.648 432.937L101.965 432.376L100.843 434.059L100.282 434.62L100.843 436.303L102.526 435.742L103.648 435.181L105.892 435.742L108.135 433.498H109.818L110.94 432.376H112.623L114.866 430.132L115.988 429.01L117.11 429.571L115.988 431.254L118.232 430.132V431.815L119.354 432.937L119.915 431.815L119.354 430.132L121.597 429.01L124.402 427.888L127.206 427.328L128.889 425.084L130.011 423.401L133.377 422.279L135.059 420.596L137.303 420.035L137.864 417.791L140.108 415.547L142.912 414.425L144.034 412.182L146.839 411.621L147.4 408.816L150.204 407.133L150.765 406.011L148.521 404.328L146.839 404.889L147.96 402.084L149.643 399.841H151.326L153.009 397.036L151.887 395.353L154.131 394.231L155.813 391.426L156.935 389.182H158.057L159.74 387.5H161.983L164.788 389.743L161.983 390.304L160.862 389.182L158.618 391.987H157.496L158.057 394.231L156.374 397.036V399.841L157.496 400.402L159.179 399.28L155.813 402.084V403.767L158.618 403.206L160.301 402.084L161.983 399.841L165.91 396.475L168.714 397.036L169.836 393.67L168.153 391.426L169.836 388.061L170.397 389.743L173.202 389.182L176.006 389.743L178.811 391.426L176.006 393.109H180.494L182.176 390.865V393.109L185.542 394.231L188.347 393.67L191.712 393.109H194.517L196.199 393.67L199.004 394.792L201.248 392.548L202.93 391.987V394.231L201.809 395.353L206.857 397.036L211.344 399.28L214.149 400.963L215.831 401.523L218.075 400.402L215.271 397.597L217.514 396.475L219.197 399.28L220.88 399.841L222.002 400.402L217.514 393.109L223.123 398.719L224.245 400.963C224.245 400.963 223.647 400.963 223.123 400.963C222.712 400.963 221.441 400.963 221.441 400.963L218.075 401.523L217.514 404.328L219.758 406.572L222.563 409.377L225.928 412.743L228.733 414.425L226.489 409.377L223.684 406.011L226.489 408.255L228.733 404.889L226.489 401.523L229.294 402.645L230.976 405.45L232.659 407.133L229.854 407.694L228.172 409.377L230.415 412.743L231.537 414.425L232.659 412.182L234.903 409.377L235.464 412.743L234.342 416.669L237.146 420.596L239.39 422.84L240.512 420.596L242.756 421.157L241.073 418.352L236.585 413.865V411.621L239.39 414.425L242.195 416.669L244.999 419.474V415.547L247.804 419.474L249.487 414.986L247.804 411.621L247.243 409.377H244.999L239.951 407.694H237.707L235.464 404.328L228.172 397.597L225.928 395.353L223.123 394.231L220.319 391.987L218.075 389.182L214.71 391.426V394.792L211.905 397.036L210.783 394.792L205.174 391.987L203.491 390.865V388.061L200.687 389.182L200.126 390.304H197.882H196.199ZM3.80459 415.547L2.68275 413.865L1 413.304V414.425L2.12184 414.986L3.80459 415.547ZM21.754 431.815V432.937H22.8758L21.754 431.815ZM18.3885 429.01L17.2666 430.132L16.1448 431.254L18.9494 430.693L18.3885 429.01ZM22.3149 434.62L23.9976 436.864L24.5585 437.986L23.4367 437.425L21.754 435.181L22.3149 434.62ZM27.3631 434.059H26.2413V435.181L27.924 434.62L27.3631 434.059ZM38.0206 439.669L36.8987 438.547H36.3378L36.8987 440.23L38.0206 439.669ZM46.4343 441.912H44.1907L43.6297 440.23L41.947 441.351L40.8252 442.473H44.1907L46.4343 441.912ZM59.3354 444.156L57.6527 443.595L55.9699 443.034L56.5309 441.351H54.2872L52.6044 442.473L48.678 441.912L50.3608 443.034H53.7263L57.0918 444.156H59.3354ZM71.1147 443.034L70.5538 444.156H72.2365L71.1147 443.034ZM76.163 442.473H75.0411H74.4802L75.6021 443.595L76.163 442.473ZM84.5767 439.669L82.894 440.23V441.351H81.2112L80.0894 443.034L78.4066 444.156L81.7722 443.034L82.894 441.912L85.6986 441.351L84.5767 439.669ZM91.3078 437.425H89.0641V439.108L88.5032 440.79L86.2595 441.351L87.3813 442.473L90.1859 441.912L91.3078 440.23L93.5514 439.669L92.4296 438.547L91.3078 437.425ZM96.356 436.303L95.2342 437.425L94.1124 436.864L94.6733 438.547L96.356 437.986L98.5997 439.108L99.7215 437.986L96.9169 437.425L96.356 436.303ZM154.131 407.694L153.57 409.938H156.374L156.935 411.06L154.131 411.621L153.009 412.743H154.691L154.131 415.547H155.252L154.131 417.23L151.326 416.108L153.57 417.791H151.887V418.913L150.204 420.596H149.082L147.4 422.279L147.96 423.962H145.156L147.4 421.157L145.717 420.596L145.156 418.352L144.595 416.669L146.839 415.547L148.521 416.669L147.4 413.865H149.643L150.204 412.182L152.448 410.499L154.131 407.694Z" fill="#F62C5D" stroke="#24272C" stroke-width="2" stroke-linecap="round" stroke-linejoin="round"/>
<path opacity="0.3" fill-rule="evenodd" clip-rule="evenodd" d="M485.633 235.48L486.194 236.602L487.316 237.163V285.405L490.681 307.844H492.925L494.047 308.966H494.608V305.6L495.169 302.234L497.412 303.917L496.851 306.161L497.973 307.283L500.217 309.527L501.9 308.966L501.339 307.844H502.46L504.143 305.6L503.582 304.478V302.234L501.9 301.673L500.217 299.99L500.778 297.185L535.555 293.259L534.994 291.576L533.311 289.893L533.872 284.283L531.628 281.479V278.674L532.75 277.552V274.747L534.433 273.064L532.75 272.503V270.26L531.067 268.016L528.824 262.967L518.727 231.553L485.633 235.48Z" fill="#F62C5D" stroke="#24272C" stroke-width="2" stroke-linecap="round" stroke-linejoin="round"/>
</svg>
