<svg width="95" height="96" viewBox="0 0 95 96" fill="none" xmlns="http://www.w3.org/2000/svg">
<g id="Vector" filter="url(#filter0_dd_1_5444)">
<path d="M57.9539 33.6346C57.829 33.2904 57.5672 33.1323 57.2203 33.0993C56.0397 32.9857 54.8591 32.8722 53.6785 32.7609C51.8323 32.587 49.9862 32.4109 48.1394 32.2478C47.9656 32.2328 47.8925 32.1616 47.8336 32.0172C47.6782 31.6386 47.5165 31.2621 47.3519 30.887C46.9398 29.9457 46.5722 28.9854 46.1343 28.0556C46.0783 27.9367 46.052 27.8068 46.0003 27.6861C45.4135 26.3015 44.8261 24.9177 44.2358 23.5353C44.0988 23.2141 43.8803 23.0022 43.5071 23C43.1218 22.9979 42.9012 23.2163 42.76 23.549C42.4585 24.2581 42.1576 24.968 41.8554 25.6772C40.9536 27.796 40.0526 29.9156 39.1501 32.0337C39.1103 32.1264 39.0919 32.2328 38.95 32.2385C38.7152 32.2478 38.481 32.2737 38.2462 32.2953C37.3558 32.3765 36.4646 32.4555 35.5742 32.5403C34.6561 32.6272 33.7387 32.7228 32.8199 32.809C31.9111 32.8945 31.0015 32.9757 30.0912 33.0526C29.7144 33.0845 29.3542 33.1405 29.1129 33.4374C29.0266 33.5438 29 33.6837 29 33.8206C29 34.0195 29.0616 34.2179 29.1881 34.3714C29.2239 34.4148 29.2616 34.4561 29.303 34.4932C30.2423 35.3345 31.1874 36.1687 32.1296 37.0065C33.4684 38.1978 34.8051 39.3912 36.1453 40.5803C36.2688 40.6902 36.3319 40.7944 36.2915 40.974C35.7487 43.3753 35.2067 45.7765 34.6781 48.1806C34.5334 48.8395 34.3624 49.4919 34.2595 50.1608C34.1772 50.6947 34.7831 51.2278 35.3713 50.8966C35.9956 50.5452 36.598 50.1529 37.2103 49.7793C37.2209 49.3949 37.2387 49.0105 37.2628 48.6275C37.2387 49.0112 37.2202 49.3949 37.2103 49.7793C37.2607 49.7534 37.3125 49.7304 37.3607 49.7017C39.3133 48.5262 41.2672 47.3522 43.2169 46.1717C43.3971 46.0625 43.5348 46.0079 43.7441 46.1451C44.2812 46.4979 44.8417 46.8147 45.3929 47.146C47.4271 48.3696 49.4619 49.5918 51.4946 50.8182C51.8132 51.0101 52.1303 51.0747 52.4432 50.8333C52.7433 50.602 52.7788 50.2851 52.6986 49.9302C52.4482 48.8251 52.207 47.7186 51.96 46.6128C51.5436 44.7455 51.1243 42.8781 50.7092 41.0107C50.6787 40.8742 50.6532 40.747 50.7922 40.6234C52.0289 39.532 53.2584 38.4327 54.4894 37.3348C55.5579 36.3821 56.6264 35.4301 57.6921 34.4745C57.944 34.2525 58.0795 33.9802 57.9539 33.6346Z" fill="url(#paint0_linear_1_5444)"/>
<path d="M53.7253 32.2631L53.7254 32.2631C54.9065 32.3745 56.0875 32.488 57.2679 32.6016L57.2681 32.6016C57.5031 32.624 57.7438 32.6921 57.9561 32.84C58.1734 32.9913 58.3298 33.2047 58.4239 33.464M53.7253 32.2631L57.9539 33.6346M53.7253 32.2631C53.4628 32.2383 53.2002 32.2136 52.9376 32.1888C51.3821 32.042 49.825 31.8951 48.2673 31.7572M53.7253 32.2631L48.2673 31.7572M58.4239 33.464L57.9539 33.6346M58.4239 33.464C58.4239 33.4639 58.4238 33.4639 58.4238 33.4638L57.9539 33.6346M58.4239 33.464C58.5238 33.7391 58.5266 34.0136 58.4354 34.2691C58.3484 34.5126 58.1891 34.7026 58.0243 34.8481M57.9539 33.6346C58.0795 33.9802 57.944 34.2525 57.6921 34.4745M58.0243 34.8481C58.0249 34.8477 58.0254 34.8472 58.0259 34.8467L57.6921 34.4745M58.0243 34.8481C57.0709 35.7031 56.1151 36.5552 55.1598 37.407C55.0473 37.5073 54.9347 37.6077 54.8222 37.708L57.6921 34.4745M58.0243 34.8481C58.0238 34.8486 58.0233 34.8491 58.0227 34.8496L57.6921 34.4745M35.6165 51.3323C36.0555 51.0853 36.4903 50.8145 36.9137 50.5507C37.0956 50.4375 37.2753 50.3255 37.4525 50.2173C37.4532 50.2169 37.454 50.2165 37.4548 50.2161C37.4889 50.1994 37.5638 50.1627 37.6166 50.1312L37.6186 50.13C38.0135 49.8923 38.4086 49.6546 38.8037 49.4168C40.3614 48.4794 41.9201 47.5414 43.4759 46.5994L43.476 46.5993C43.4855 46.5936 43.494 46.5885 43.5017 46.5841C43.8866 46.8355 44.2873 47.0721 44.6764 47.3019C44.8318 47.3937 44.9853 47.4844 45.1352 47.5744C45.6439 47.8804 46.1525 48.1862 46.6611 48.4921C48.1868 49.4095 49.7121 50.3267 51.2363 51.2463L51.2367 51.2466C51.4319 51.3641 51.6703 51.4703 51.9396 51.4873C52.2253 51.5053 52.5014 51.42 52.7487 51.2292C52.9867 51.0456 53.1363 50.8109 53.1999 50.5441C53.2604 50.2902 53.2358 50.0389 53.1863 49.82L53.1863 49.8196C53.0311 49.1348 52.8798 48.4512 52.7282 47.766C52.6352 47.3461 52.5422 46.9256 52.448 46.5039C52.2813 45.7564 52.1143 45.0094 51.9472 44.2625C51.6986 43.1509 51.4501 42.0396 51.203 40.9278C52.2163 40.033 53.225 39.133 54.2326 38.234C54.4291 38.0586 54.6257 37.8833 54.8222 37.708L33.7653 50.0846L34.2595 50.1608L33.7653 50.0848C33.6919 50.5618 33.9255 51.0031 34.2669 51.2553C34.625 51.5198 35.1351 51.6033 35.6165 51.3323ZM35.6165 51.3323L35.3713 50.8966L35.6166 51.3322C35.6166 51.3322 35.6165 51.3323 35.6165 51.3323ZM48.2673 31.7572C48.1188 31.3974 47.9652 31.0403 47.8097 30.6861M48.2673 31.7572L47.8097 30.6861M47.8097 30.6861C47.8098 30.6862 47.8098 30.6864 47.8099 30.6865L47.3521 30.8869L47.8097 30.6861ZM46.4606 27.491C45.8738 26.1063 45.2861 24.722 44.6956 23.3389L46.4606 27.491ZM46.4606 27.491L46.0003 27.6861L46.4599 27.4892C46.4601 27.4898 46.4604 27.4904 46.4606 27.491ZM38.7273 31.7504C39.3162 30.368 39.9046 28.9852 40.4929 27.6022C40.7937 26.8953 41.0944 26.1883 41.3953 25.4814L41.3954 25.4811C41.5856 25.035 41.775 24.5889 41.9646 24.1426C42.0762 23.8797 42.1879 23.6167 42.2997 23.3536L38.7273 31.7504ZM38.7273 31.7504C38.5941 31.7598 38.4627 31.7724 38.3385 31.7843C38.2914 31.7888 38.2454 31.7932 38.2008 31.7973C37.9554 31.8197 37.7097 31.8419 37.4638 31.8642C36.819 31.9225 36.1726 31.981 35.5271 32.0425C35.0765 32.0852 34.6397 32.1285 34.2042 32.1718C33.7312 32.2187 33.2596 32.2655 32.7732 32.3112L32.7731 32.3112C31.8658 32.3965 30.9578 32.4776 30.0491 32.5543L30.049 32.5544C29.6818 32.5854 29.1131 32.6442 28.7248 33.1222C28.5343 33.3568 28.5 33.6322 28.5 33.8206C28.5 34.1188 28.592 34.4343 28.8024 34.6895C28.8479 34.7446 28.9031 34.8063 28.9694 34.8656C29.5965 35.4273 30.2269 35.9864 30.8562 36.5447C31.1703 36.8233 31.4842 37.1017 31.7972 37.38C32.2674 37.7984 32.7377 38.2173 33.208 38.6363C34.0675 39.402 34.9274 40.1681 35.7884 40.932L38.7273 31.7504ZM38.7085 31.8456C38.6965 31.8582 38.6868 31.8705 38.6792 31.8813C38.6678 31.8976 38.6611 31.9107 38.659 31.9152M38.7085 31.8456L38.7092 31.8448M38.7085 31.8456L38.938 31.9434M38.7085 31.8456L38.938 31.9434M38.659 31.9152C38.6592 31.9147 38.6595 31.914 38.6598 31.9132L38.6699 31.8877C38.6745 31.8757 38.6819 31.8569 38.6905 31.8367L38.7092 31.8448M38.659 31.9152C38.6585 31.9162 38.6583 31.9168 38.6583 31.9169L38.659 31.9152ZM38.7092 31.8448L38.938 31.9428L38.9298 31.7389C38.902 31.74 38.8518 31.7477 38.7952 31.7787C38.7589 31.7986 38.7305 31.8223 38.7092 31.8448ZM38.938 31.9434L38.95 32.2385L38.938 31.9434ZM36.702 50.0935C36.8711 49.9881 37.0403 49.883 37.2103 49.7793L37.41 49.7844L37.4105 49.7845L37.7101 49.7922C37.7128 49.69 37.716 49.5878 37.7199 49.4855C37.72 49.4854 37.7201 49.4854 37.7202 49.4853L36.702 50.0935ZM48.3036 31.844C48.3036 31.844 48.3034 31.8436 48.303 31.8429L48.3036 31.844Z" stroke="url(#paint1_linear_1_5444)"/>
</g>
<defs>
<filter id="filter0_dd_1_5444" x="0" y="0" width="95.0015" height="95.9991" filterUnits="userSpaceOnUse" color-interpolation-filters="sRGB">
<feFlood flood-opacity="0" result="BackgroundImageFix"/>
<feColorMatrix in="SourceAlpha" type="matrix" values="0 0 0 0 0 0 0 0 0 0 0 0 0 0 0 0 0 0 127 0" result="hardAlpha"/>
<feOffset dx="4" dy="12"/>
<feGaussianBlur stdDeviation="16"/>
<feColorMatrix type="matrix" values="0 0 0 0 0.958333 0 0 0 0 0.400316 0 0 0 0 0 0 0 0 0.42 0"/>
<feBlend mode="normal" in2="BackgroundImageFix" result="effect1_dropShadow_1_5444"/>
<feColorMatrix in="SourceAlpha" type="matrix" values="0 0 0 0 0 0 0 0 0 0 0 0 0 0 0 0 0 0 127 0" result="hardAlpha"/>
<feOffset dx="-6" dy="-6"/>
<feGaussianBlur stdDeviation="8"/>
<feColorMatrix type="matrix" values="0 0 0 0 1 0 0 0 0 1 0 0 0 0 1 0 0 0 0.6 0"/>
<feBlend mode="normal" in2="effect1_dropShadow_1_5444" result="effect2_dropShadow_1_5444"/>
<feBlend mode="normal" in="SourceGraphic" in2="effect2_dropShadow_1_5444" result="shape"/>
</filter>
<linearGradient id="paint0_linear_1_5444" x1="26.4443" y1="41.8805" x2="71.3623" y2="24.091" gradientUnits="userSpaceOnUse">
<stop stop-color="#F8AC75"/>
<stop offset="1" stop-color="#E6660A"/>
</linearGradient>
<linearGradient id="paint1_linear_1_5444" x1="27.8888" y1="47.3515" x2="58.1434" y2="45.7621" gradientUnits="userSpaceOnUse">
<stop stop-color="white"/>
<stop offset="1" stop-color="#CD5B0A"/>
</linearGradient>
</defs>
</svg>
